<svg width="400" height="400" viewBox="0 0 400 400" fill="none" xmlns="http://www.w3.org/2000/svg">
<path d="M387.5,158.3c-6.9,0-12.5,5.6-12.5,12.5c0,0,0,0,0,0v12.5h-34.4c-3-25.9-13.2-50.5-29.4-70.9L335.5,88l9.8,8.3
	c4.9,4.9,12.8,4.9,17.7,0c4.9-4.9,4.9-12.8,0-17.7c0,0,0,0,0,0L321.3,37c-4.9-4.9-12.8-4.9-17.7,0c-4.9,4.9-4.9,12.8,0,17.7l0,0
	l8.3,9.8l-24.3,24.3c-20.5-16.2-45-26.4-70.9-29.4V25h12.5c6.9,0,12.5-5.6,12.5-12.5S236.1,0,229.2,0l0,0h-58.3
	c-6.9,0-12.5,5.6-12.5,12.5S163.9,25,170.8,25h12.5v34.4c-25.9,3-50.5,13.2-70.9,29.4L88,64.5l8.3-9.8c4.9-4.9,4.9-12.8,0-17.7
	c-4.9-4.9-12.8-4.9-17.7,0l0,0L38,78.7c-4.9,4.9-4.8,12.8,0,17.7c4.9,4.9,12.8,4.9,17.6,0l8.8-8.3l24.3,24.3
	c-16.2,20.5-26.4,45-29.4,70.9H25v-12.5c0-6.9-5.6-12.5-12.5-12.5S0,163.9,0,170.8v58.3c0,6.9,5.6,12.5,12.5,12.5S25,236.1,25,229.2
	l0,0v-12.5h34.4c3,25.9,13.2,50.5,29.4,70.9L64.5,312l-9.8-8.3c-4.9-4.9-12.8-4.9-17.7,0c-4.9,4.9-4.9,12.8,0,17.7L78.7,363
	c4.9,4.9,12.8,4.9,17.7,0c4.9-4.9,4.9-12.8,0-17.7l0,0l-8.3-9.8l24.3-24.3c20.5,16.2,45,26.4,70.9,29.4V375h-12.5
	c-6.9,0-12.5,5.6-12.5,12.5s5.6,12.5,12.5,12.5h58.3c6.9,0,12.5-5.6,12.5-12.5s-5.6-12.5-12.5-12.5l0,0h-12.5v-34.4
	c25.9-3,50.5-13.2,70.9-29.4l24.3,24.3l-8.3,9.8c-4.9,4.9-4.9,12.8,0,17.7c4.9,4.9,12.8,4.9,17.7,0l41.7-41.7
	c4.9-4.9,4.9-12.8,0-17.7s-12.8-4.9-17.7,0l-9.8,8.3l-24.3-24.3c16.2-20.5,26.4-45,29.4-70.9H375v12.5c0,6.9,5.6,12.5,12.5,12.5
	s12.5-5.6,12.5-12.5l0,0v-58.3C400,163.9,394.4,158.3,387.5,158.3C387.5,158.3,387.5,158.3,387.5,158.3z M154.2,166.7
	c-16.1,0-29.2-13.1-29.2-29.2s13.1-29.2,29.2-29.2s29.2,13.1,29.2,29.2C183.3,153.6,170.3,166.7,154.2,166.7
	C154.2,166.7,154.2,166.7,154.2,166.7z M250,275c-9.2,0-16.7-7.5-16.7-16.7c0-9.2,7.5-16.7,16.7-16.7c9.2,0,16.7,7.5,16.7,16.7
	C266.7,267.5,259.2,275,250,275z" fill="#FFFFFF" />
</svg>