<svg width="650" height="500" viewBox="0 0 650 500" fill="none" xmlns="http://www.w3.org/2000/svg">
<rect fill="#ffffff" x="62.3" y="399.5" class="st0" width="525.4" height="22"/>
<rect fill="#ffffff" x="32.6" y="437" class="st0" width="583.8" height="22"/>
<rect fill="#ffffff" x="5" y="474.5" class="st0" width="640" height="22"/>
<rect fill="#ffffff" x="62.3" y="125.3" class="st0" width="525.4" height="22"/>
<polygon fill="#ffffff" class="st0" points="168.6,107.6 325,60.8 478.1,107.6 542,107.6 325,40.5 104.7,107.6 "/>
<polygon fill="#ffffff" class="st0" points="62.3,107.6 323.4,27.8 587.7,107.6 587.7,84 325,3 62.3,84 "/>
<path fill="#ffffff" class="st0" d="M93.1,370.4c0,0,0,16.5,18.7,16.5c18.7,0,17.6-16.5,17.6-16.5V156.7h-13.8v214.3c0,0,0,3.8-5,3.8
	c-5,0-3.8-5-3.8-5V156.7H93.1V370.4z"/>
<polygon fill="#ffffff" class="st0" points="179.6,386.9 190.6,386.9 190.6,254.7 204.4,386.9 216,386.9 216,156.7 204.4,156.7 204.4,266.8 
	196.7,156.7 179.6,156.7 "/>
<polygon fill="#ffffff" class="st0" points="267.2,386.9 302.4,386.9 302.4,374.8 282.6,374.8 282.6,270.7 297.5,270.7 297.5,258 282.6,258 
	282.6,168.2 297.5,168.2 297.5,156.7 267.2,156.7 "/>
<path fill="#ffffff" class="st0" d="M469.9,225v-51.8c0,0-0.6-16.5-18.2-16.5c-17.6,0-17.6,16.5-17.6,16.5v197.2c0,0-0.6,16.5,17.6,16.5
	c18.2,0,18.2-16.5,18.2-16.5v-57.8h-13.8v57.8c0,0,0,4.4-4.4,4.4c-4.1,0-4.9-4.4-4.9-4.4V173.2c0,0,0-5,4.9-5c4.4,0,4.4,5,4.4,5V225
	H469.9z"/>
<path fill="#ffffff" class="st0" d="M557.4,267.6v-94.5c0,0,1.1-16.5-18.2-16.5c-19.3,0-19.3,16.5-19.3,16.5v197.2c0,0,0,16.5,18.2,16.5
	c19.3,0,19.3-16.5,19.3-16.5v-72.5V267.6z M544.2,370.4c0,0,0.6,4.4-5,4.4c-5.5,0-5.5-4.4-5.5-4.4V173.2c0,0,0-5,5-5
	c5.5,0,5.5,5,5.5,5V370.4z"/>
<path fill="#ffffff" class="st0" d="M369.1,370.4c0,0,0,4.4-3.6,4.1c-3.6-0.3-3.6-4.1-3.6-4.1v-57.8h-14.3v57.8c0,0-0.6,16.5,17.6,16.5
	s18.2-16.5,18.2-16.5v-40.8c0,0,0,2.2,0-9.1c0-27-21.5-78.5-21.5-95.6c0-2.2,0-4.4,0-4.4v-47.4c0,0-0.5-5,3.3-5c3.9,0,3.9,5,3.9,5
	V225h14.3v-51.8c0,0,0.5-17.1-17.6-16.5c-18.2,0.5-18.2,16.5-18.2,16.5v34.4v9.6c0,28.9,21.5,77.7,21.5,100v5.2V370.4z"/>
</svg>
