<svg width="500" height="500" viewBox="0 0 500 500" fill="none" xmlns="http://www.w3.org/2000/svg">
<path fill="#ffffff" fill-opacity="0.25" d="M499,250C499,112.5,387.5,1,250,1C112.5,1,1,112.5,1,250c0,137.5,111.5,249,249,249
	C387.5,499,499,387.5,499,250"/>
<path fill="#ffffff" fill-opacity="0.5" d="M343.9,254.5c-108.1,0-175.7,94.5-277.5,94.5l11.9,20.5c101.8,0,156.1-82.6,262.9-82.6
	c49.8,0,83.4,44.4,96.6,73.7c-0.5-1.2,4.6-4.5,5.3-5.7c5.5-10.2,10.3-20.9,14.2-31.9C439.9,299.1,403.2,254.5,343.9,254.5"/>
<path fill="#ffffff" fill-opacity="0.5" d="M101.6,395.5c84.6,0,136.9-67.1,213.6-67.1c57.2,0,82.8,52.1,86.8,70.7l23.3-30.6c-4.7-17.3-32.8-70.7-90-70.7
	c-101.8,0-155.9,77.1-240.5,77.1L101.6,395.5z"/>
<path fill="#ffffff" fill-opacity="0.5" d="M311.5,339.4c-76.7,0-119.8,63-204.5,63l4.5,18.2c0.9,0.8,1.9,1.5,2.9,2.3c90.9-0.9,116.5-51.8,184.3-52.4
	c53.4-0.5,52,40.6,56.6,62.5l35.3-27.2C387.3,387.2,368.6,339.4,311.5,339.4"/>
<path fill="#ffffff" fill-opacity="0.5" d="M296.9,381.4c-71.7,0-83.6,46.6-168,46.6l-2.7,3.6c35.3,24.1,77.9,38.2,123.8,38.2c32.1,0,62.5-6.9,90-19.3
	l-0.2-3.8C339.8,425.2,343,381.4,296.9,381.4"/>
<path fill="#ffffff" fill-opacity="0.5" d="M347,208.6c-111.9,0-195,103.9-280.3,103.9c-12.4,0-20.2-2.8-30-9c3.3,12.9,7.7,25.4,13,37.3l13.2-0.5
	c108.2,0,158.2-93.8,287.2-94.3c60.7-0.3,96,44.5,110.8,65.4c4.5-15.6,7.4-32,8.4-48.8C451.4,245.6,410.4,208.6,347,208.6"/>
<path fill="#ffffff" d="M269.3,148.2c0-10.7-8.6-19.3-19.3-19.3c-10.6,0-19.3,8.6-19.3,19.3c0,10.6,8.6,19.3,19.3,19.3
	C260.7,167.5,269.3,158.8,269.3,148.2"/>
<path fill="#ffffff" d="M250,440.1c-67.9,0-122.9-55-122.9-122.9c0-67.9,55-122.9,122.9-122.9c67.9,0,122.9,55,122.9,122.9
	C372.9,385.1,317.9,440.1,250,440.1 M349.3,307.4c0-54.8-44.5-99.3-99.3-99.3c-54.8,0-99.3,44.5-99.3,99.3
	c0,54.8,44.5,99.3,99.3,99.3C304.9,406.7,349.3,362.3,349.3,307.4"/>
<rect x="235.5" y="176.4" fill="#ffffff" width="28.9" height="270.6"/>
<path fill="#ffffff" d="M410.5,332.4c-19.8,70.1-84.1,121.5-160.5,121.5S109.2,402.5,89.5,332.4H46.3C78.9,412.9,157.8,469.8,250,469.8
	c92.2,0,171.1-56.8,203.7-137.4H410.5z"/>
</svg>

