<svg width="500" height="500" viewBox="0 0 500 500" fill="none" xmlns="http://www.w3.org/2000/svg">
<path fill="#ffffff" d="M112,206.4c1.3,0,2.4,1.1,2.4,2.4v142.3c0,1.3-1.1,2.4-2.4,2.4H69.5c-1.3,0-2.4-1.1-2.4-2.4V208.8
	c0-1.3,1.1-2.4,2.4-2.4H112"/>
<path fill="#ffffff" d="M265.9,206.4c1.3,0,2.4,1.1,2.4,2.4v35c0,1.3-1.1,2.4-2.4,2.4h-37.2c-1.3,0-2.4,1.1-2.4,2.4v102.6
	c0,1.3-1.1,2.4-2.4,2.4h-42.6c-1.3,0-2.4-1.1-2.4-2.4V248.6c0-1.3-1.1-2.4-2.4-2.4h-36.3c-1.3,0-2.4-1.1-2.4-2.4v-35
	c0-1.3,1.1-2.4,2.4-2.4H265.9"/>
<path fill="#ffffff" d="M431.7,206.4c1.3,0,2.4,1.1,2.4,2.4v72.5c0,48-25.2,73.4-72.8,73.4c-46,0-69.3-25.1-69.3-74.5v-71.4
	c0-1.3,1.1-2.4,2.4-2.4h42.6c1.3,0,2.4,1.1,2.4,2.4V280c0,15.7,4.1,34.3,23.8,34.3c16,0,23.8-11.2,23.8-34.3v-71.2
	c0-1.3,1.1-2.4,2.4-2.4H431.7"/>
<path fill="#ffffff" d="M476.4,500c-28.3-13.9-60.1-29.8-89.4-47.3c5-3.9,9.8-7.9,14.5-12.2c45.5-41.1,74.1-100.3,74.1-166.1
	c0-46.8-14.5-90.3-39.2-126.3c-40.6-60.3-109.5-100-187.5-100c-44.1,0-85.3,12.7-120.2,34.7C110.5,57.2,92.1,29.5,72.6,0
	c6.1,12.4,24.3,50.8,45.6,89.9c-48.4,34.5-82.7,87.6-92.3,148.8C24,250.3,23,262.2,23,274.4c0,34.9,8,67.9,22.3,97.4
	C81.8,447.5,159.4,499.9,249,499.9c46.1,0,89.1-13.9,124.9-37.7C408.2,476.4,442.8,488.2,476.4,500 M227.8,480.4
	c-52.4-5.3-99.1-29.9-132.8-66.5c-5.1-7.4-8.2-16.4-9.3-26.8c20.9,20.3,47.4,38.6,77.6,53.1c32.9,15.7,67.4,25.7,100.3,29.3
	C251.9,477.6,239.8,481.4,227.8,480.4 M80.7,368.1c-0.2,2.1-0.3,4.1-0.4,6.1c-1.9-2-3.7-4.1-5.5-6.1h-6.7c3.7,4.6,7.8,9.1,12.1,13.6
	c0.2,6.3,1.1,12.2,2.6,17.7c-26.6-34.7-42.3-78.1-42.3-125c0-42.2,12.7-81.4,34.5-114.1c-2.5,9.9-3.6,20.5-3.2,31.6h5
	c-0.6-16.4,2.1-31.8,8.3-45.5c8.3-10.4,17.5-20,27.6-28.7c5.3-3,10.7-5.7,16.2-8.3c12.3,21.6,25.1,42.2,36.9,57.3
	c-2.3,0.1-21.6,1.3-39.8-0.8l2.2,0.6c-0.7-0.1-1.4-0.1-2-0.2c4.2,8.7,8.8,17.2,13.7,25.5h85.9c-4.5-3.7-8.9-7.5-13.3-11.4
	c20-16.2,40.8-29.9,61.5-40.5c6.6,7.5,15.4,14.3,25.7,19.7c13.2,6.9,27.2,10.5,39.8,10.8c1.5,6.9,2.8,14.1,3.9,21.4h5.1
	c-1.1-7.3-2.4-14.5-3.8-21.4c12.8-0.5,23.8-4.7,30.3-12.2c10.8,10.5,20.4,21.7,28.6,33.6h6.1c-8.9-13.4-19.5-26.1-31.7-37.8
	c3.6-6.3,4.4-13.8,2.3-21.7c-1.3-5.1-3.8-10.2-7.2-15c10.1,2,18.6,5.9,25.1,11.8c37.1,37.4,60,88.7,60,145.2c0,26.3-5,51.5-14,74.7
	c-17.7,36.7-60.4,56.7-112.9,58.1c22.2-5.6,39.8-13.3,60.8-26.6c-7.8-3.6-15.7-7.5-23.6-11.7c-2.4,0.1-4.9,0.2-7.4,0.2
	c-43.7,0-71-19.3-79.9-57.4C267.4,301.2,254,290.2,241,279v31.9c18.4,16.7,36.7,32.1,53.9,46.3c-13.2,8.8-55.9,21.7-64.2,23.2
	c7.2,5.8,14.5,11.2,21.8,16.4c-17.5-4.9-35.2-11.5-52.7-19.9c-1.7-0.8-3.4-1.6-5-2.5c-0.2-0.1-0.5-0.2-0.7-0.4
	c-3.1-1.6-6.2-3.2-9.2-4.8c-21.8-11.9-40.7-26-55.8-41.3v7.1c5,4.8,10.2,9.5,15.8,13.9c16.6,13.2,35.7,24.8,56.7,34.4
	c20.8,9.6,42,16.9,63.1,21.8c11.7,7.8,23.6,15,35.6,21.7c-0.1,0.2-0.3,0.5-0.4,0.7c-9.3,15.7-19.4,28.2-29.9,37
	c-33.2-2.9-69.4-12.6-104.5-29.4c-31.6-15.1-59-34.5-80.1-55.9c0-3.6,0.1-7.4,0.5-11.3H80.7z M262.1,119c1.5,5.7,4.5,11.4,8.6,16.9
	c-20.9,10.8-41.8,24.7-62,41c-22.9-21.2-44-46-65-73.8c0.1,0,0.2-0.1,0.3-0.1c0,0,0,0,0.1,0h0c9.3-3.5,19.2-6.3,29.5-8.3
	c29.5-5.7,60.5-4.7,90.8,2.6C260.8,103.6,260,111.1,262.1,119 M267,117.7c-1.9-7-1.1-13.5,2.3-18.8c0.1-0.1,0.1-0.2,0.2-0.3
	c16.2,4.3,32.1,10.5,47.5,18.3c-3.2,0.9-6.5,2-9.8,3.1c-10.5,3.6-21.2,8.1-32,13.5C271.3,128.4,268.4,123,267,117.7 M319.1,112.3
	c-14.9-7.6-30.3-13.6-45.9-18c6.2-5.6,15.9-8.5,27.1-8.5C307.1,92.8,313.5,101.7,319.1,112.3 M307.8,86.2
	c10.4,1.1,21.7,4.4,32.6,10.1c7.7,4,14.6,9,20.2,14.4c-10.4-0.4-22,1-34.5,3.9C320.6,103.4,314.4,93.9,307.8,86.2 M309,124.9
	c4.9-1.7,9.6-3.1,14.3-4.3c2.1,4.4,4,9.1,5.8,14c3.6,9.7,6.7,20,9.2,30.8c-11.4-0.6-24.1-4-36.3-10.3c-9.2-4.8-17.2-10.9-23.3-17.6
	C288.9,132.5,299,128.3,309,124.9 M333.8,132.8c-1.1-2.9-2.2-5.7-3.4-8.5c15,8.9,28.7,19.2,40.8,30.4c-5.8,6.8-15.8,10.4-27.7,10.8
	C340.9,154,337.7,143,333.8,132.8 M330.9,118.8c12.7-2.7,24.5-3.5,34.8-2.5c4.7,5.6,8,11.6,9.6,17.4c1.6,6.2,1.2,11.9-1.2,16.8
	C361.3,138.6,346.9,128,330.9,118.8 M342.7,91.8c-13.3-6.9-27.2-10.5-39.8-10.8c-3.8-3.8-7.7-7-11.8-9.6
	c33.9,6.8,64.8,21.8,90.5,42.7c-4.2-1.3-8.6-2.3-13.4-2.8C361.6,103.9,352.9,97.1,342.7,91.8 M295.4,81.1
	c-11.7,0.9-21.6,4.9-27.8,11.8c-31.7-8-64.1-9.2-95-3.2c-10.9,2.1-21.3,5.1-31.2,8.8l0,0c-0.3,0.1-0.6,0.2-0.9,0.4
	c-0.2-0.3-0.5-0.6-0.7-1c31.8-19.5,69.3-30.7,109.4-30.7c6.2,0,12.4,0.3,18.4,0.8C277.4,69.2,286.7,73.6,295.4,81.1 M271.1,470.1
	c6.5,0.5,12.9,0.8,19.2,0.8c4.7,0,9.3-0.1,13.9-0.4c6.2-0.4,12.2-1.1,17.9-2c-21.8,8-45.3,12.6-69.8,12.9
	C258.6,478.8,264.9,475.1,271.1,470.1 M276.8,465.2c9.6-8.9,18.7-20.6,27.2-35c0.2-0.3,0.3-0.6,0.5-0.9
	c16.3,8.9,32.8,16.9,49.4,24.3c-1.1,0.7-2.3,1.3-3.5,1.9C329.9,463.5,304.5,466.8,276.8,465.2 M329.4,412.3c7-0.1,14-0.6,20.8-1.4
	c34.8-4.1,62.8-16.6,81.6-35.8c-15,26.8-35.9,49.9-60.9,67.7C355.7,433,341.6,422.8,329.4,412.3"/>
</svg>
