<svg width="446" height="100" viewBox="0 0 446 100" fill="none" xmlns="http://www.w3.org/2000/svg">
	<path fill="#9cffe7" d="M78.6,68.7c-17.3,0-31.3,14-31.3,31.3h31.3h31.3C109.9,82.7,95.9,68.7,78.6,68.7z"/>
	<path fill="#FFFFFF" d="M224.9,40c-1.5-7.2-4.5-13.9-9-20c-4.7-6.2-10.5-11.1-17.5-14.6c-7-3.6-14.5-5.4-22.5-5.4h-50.3v20v20v20v20
		v20h50.3c8,0,15.5-1.8,22.5-5.4c7-3.6,12.8-8.5,17.5-14.6c4.5-6.1,7.5-12.8,9-20c0.7-3,1-6.4,1-10C225.9,46.4,225.6,43.1,224.9,40z
		 M179.3,66.3c-2.3,1.5-5.2,2.3-8.7,2.3h-7.9V60V40v-8.6h7.9c3.5,0,6.4,0.8,8.7,2.3c2.3,1.5,4,3.6,5.1,6.3c1.2,2.8,1.9,6.1,1.9,10
		c0,3.9-0.6,7.2-1.9,10C183.3,62.7,181.6,64.8,179.3,66.3z"/>
	<path fill="#FFFFFF" d="M323.6,80l-3.6-6c4.3-4.3,7.5-9,9.7-14c2.4-5.3,3.6-11,3.6-17v-1.6c-0.1-0.2-0.1-0.4-0.1-0.7V40
		c-0.6-7.3-2.8-14-6.6-20c-3.8-6.1-8.9-11-15.4-14.6C304.8,1.8,297.9,0,290.5,0h-52.1v20v20v20v20v20h37.3V80V63.7l10,16.3l12.7,20
		h37.3L323.6,80z M282,54.3h-6.4V40v-8.6h6.4c8.1,0,12.7,2.9,13.7,8.6c0.2,1,0.3,1.7,0.3,2.3C296,50.3,291.4,54.3,282,54.3z"/>
	<path fill="#FFFFFF" d="M433.6,80l-3.6-6c4.3-4.3,7.5-9,9.7-14c2.4-5.3,3.6-11,3.6-17v-1.6c-0.1-0.2-0.1-0.4-0.1-0.7V40
		c-0.6-7.3-2.8-14-6.6-20c-3.8-6.1-8.9-11-15.4-14.6C414.8,1.8,407.9,0,400.5,0h-52.1v20v20v20v20v20h37.3V80V63.7l10,16.3l12.7,20
		h37.3L433.6,80z M392,54.3h-6.4V40v-8.6h6.4c8.1,0,12.7,2.9,13.7,8.6c0.2,1,0.3,1.7,0.3,2.3C406,50.3,401.4,54.3,392,54.3z"/>
	<path fill="#FFFFFF" d="M0,100h31.6c0-26,21.1-47,47-47V21.4C35.2,21.4,0,56.6,0,100z"/>
</svg>
