<svg width="1360" height="500" viewBox="0 0 1360 500" fill="none" xmlns="http://www.w3.org/2000/svg">
	<polygon fill="#ffffff" points="527.4,198.1 545.1,149.7 545.4,149.7 562.9,198.1 564.4,198.1 589.1,132.2 581.2,132.2 563.7,179.3 
		563.5,179.3 546,131.6 544.5,131.6 527.2,179.3 527,179.3 509.3,132.2 501.3,132.2 525.9,198.1 	"/>
	<path fill="#ffffff" d="M661.3,164.8c0-9.6-3.2-17.7-9.6-24.1c-6.5-6.6-14.5-9.8-24.2-9.8c-9.4,0-17.6,3.3-24.2,9.9
		c-6.7,6.6-9.9,14.6-9.9,24c0,9.8,3.1,17.9,9.1,24.2c6.2,6.4,14.5,9.5,25,9.5c9.8,0,17.9-3.2,24.2-9.6
		C658.1,182.5,661.3,174.5,661.3,164.8z M627.5,191.7c-7.8,0-14.2-2.5-18.9-7.5c-4.7-5.1-7.1-11.5-7.1-19.4c0-7.6,2.4-14.1,7.2-19.2
		c4.9-5.2,11.1-7.7,18.7-7.7c7.5,0,13.7,2.6,18.6,7.8c4.9,5.2,7.3,11.5,7.3,19.2c0,7.6-2.4,13.9-7.2,19.2
		C641.4,189.2,635.1,191.7,627.5,191.7z"/>
	<path fill="#ffffff" d="M691,168.8v1.3l23.2,27.5h9.9l-21.4-24.4c5.6-1.5,9.9-4.1,13.1-7.8c3.2-3.9,4.8-8.1,4.8-12.8
		c0-6.5-2.3-11.4-6.9-15c-4.5-3.7-9.8-5.5-15.9-5.5h-23.4v65.5h8v-59.1h14.2c9.5,0,15.9,5.5,15.9,14.6
		C712.5,161.5,705,168.3,691,168.8z"/>
	<polygon fill="#ffffff" points="742.1,132 734,132 734,197.6 776.3,197.6 776.3,190.9 742.1,190.9 	"/>
	<path fill="#ffffff" d="M831.7,188.5c5.6-6.1,8.3-14.1,8.3-23.9c0-9.8-2.9-17.7-8.7-23.6c-5.8-6-13.6-8.9-23.5-8.9h-22.4v65.6h23.5
		C818.5,197.6,826.1,194.5,831.7,188.5z M793.3,138.6H808c8,0,14,2.4,18.1,7.2c4.1,4.9,6.2,11.1,6.2,18.8c0,7.8-2,14.2-6,19
		c-3.9,4.8-9.7,7.1-17.4,7.2h-15.6V138.6z"/>
	<path fill="#ffffff" d="M565.6,304.5h7.6v-66.1h-1.7l-30.7,41.7L510,238.4h-1.7v66.1h7.6v-45.8l0.2-0.2l23.8,31.8h1.6l23.8-32.6
		l0.3,0.2c0,5.4,0,13.1-0.1,23.3V304.5z"/>
	<polygon fill="#ffffff" points="631.1,245.5 631.1,238.9 589.2,238.9 589.2,304.5 633.6,304.5 633.6,297.7 597.3,297.7 597.3,273.2 
		628.5,273.2 628.5,266.7 597.3,266.7 597.3,245.5 	"/>
	<polygon fill="#ffffff" points="659.2,304.5 667.3,304.5 667.3,245.5 688.1,245.5 688.1,238.8 638.2,238.8 638.2,245.5 659.2,245.5 	
		"/>
	<polygon fill="#ffffff" points="741.9,297.7 705.6,297.7 705.6,273.2 736.8,273.2 736.8,266.7 705.6,266.7 705.6,245.5 739.4,245.5 
		739.4,238.9 697.5,238.9 697.5,304.5 741.9,304.5 	"/>
	<path fill="#ffffff" d="M750.2,271.7c0,9.8,3.1,17.9,9.1,24.2c6.2,6.4,14.5,9.5,25,9.5c9.8,0,17.9-3.2,24.2-9.6
		c6.5-6.5,9.6-14.5,9.6-24.1c0-9.6-3.2-17.7-9.6-24.1c-6.5-6.6-14.5-9.8-24.2-9.8c-9.4,0-17.6,3.3-24.2,9.9
		C753.5,254.3,750.2,262.3,750.2,271.7z M784.4,244.7c7.5,0,13.7,2.6,18.6,7.8c4.9,5.2,7.3,11.5,7.3,19.2c0,7.6-2.4,13.9-7.2,19.2
		c-4.8,5.2-11,7.7-18.7,7.7c-7.8,0-14.2-2.5-18.9-7.5c-4.7-5.1-7.1-11.5-7.1-19.4c0-7.6,2.4-14.1,7.2-19.2
		C770.6,247.3,776.8,244.7,784.4,244.7z"/>
	<path fill="#ffffff" d="M869.4,260c0,8.3-7.5,15.2-21.5,15.7v1.3l23.2,27.5h9.9l-21.4-24.4c5.6-1.5,9.9-4.1,13.1-7.8
		c3.2-3.9,4.8-8.1,4.8-12.8c0-6.5-2.3-11.4-6.9-15c-4.5-3.7-9.8-5.5-15.9-5.5h-23.4v65.5h8v-59.1h14.2
		C863.1,245.4,869.4,250.9,869.4,260z"/>
	<path fill="#ffffff" d="M922.3,305.5c9.8,0,17.9-3.2,24.2-9.6c6.5-6.5,9.6-14.5,9.6-24.1c0-9.6-3.2-17.7-9.6-24.1
		c-6.5-6.6-14.5-9.8-24.2-9.8c-9.4,0-17.6,3.3-24.2,9.9c-6.7,6.5-9.9,14.6-9.9,24c0,9.8,3.1,17.9,9.1,24.2
		C903.4,302.3,911.8,305.5,922.3,305.5z M903.6,252.5c4.9-5.2,11.1-7.7,18.7-7.7c7.5,0,13.7,2.6,18.6,7.8c4.9,5.2,7.3,11.5,7.3,19.2
		c0,7.6-2.4,13.9-7.2,19.2c-4.8,5.2-11,7.7-18.7,7.7c-7.8,0-14.2-2.5-18.9-7.5c-4.7-5.1-7.1-11.5-7.1-19.4
		C896.4,264.1,898.8,257.6,903.6,252.5z"/>
	<polygon fill="#ffffff" points="1011.6,297.7 977.4,297.7 977.4,238.9 969.3,238.9 969.3,304.5 1011.6,304.5 	"/>
	<path fill="#ffffff" d="M1081.9,271.7c0-9.6-3.2-17.7-9.6-24.1c-6.5-6.6-14.5-9.8-24.2-9.8c-9.4,0-17.6,3.3-24.2,9.9
		c-6.7,6.5-9.9,14.6-9.9,24c0,9.8,3.1,17.9,9.1,24.2c6.2,6.4,14.5,9.5,25,9.5c9.8,0,17.9-3.2,24.2-9.6
		C1078.7,289.4,1081.9,281.4,1081.9,271.7z M1048,298.6c-7.8,0-14.2-2.5-18.9-7.5c-4.7-5.1-7.1-11.5-7.1-19.4
		c0-7.6,2.4-14.1,7.2-19.2c4.9-5.2,11.1-7.7,18.7-7.7s13.7,2.6,18.6,7.8c4.9,5.2,7.3,11.5,7.3,19.2c0,7.6-2.4,13.9-7.2,19.2
		C1061.9,296,1055.7,298.6,1048,298.6z"/>
	<path fill="#ffffff" d="M1147.2,271.8h-7.5v24.3c-4.1,1.7-8.5,2.6-13.2,2.6c-8.3,0-14.8-2.5-19.3-7.4c-4.5-5-6.7-11.4-6.7-19.3
		c0-8.4,2.6-15.1,7.6-20c5.1-5.1,11.4-7.5,19.1-7.5c6.3,0,12,1.4,17.3,4.2v-7.6c-4.4-2.4-10.2-3.6-17.7-3.6
		c-9.9,0-18.2,3.3-24.7,9.9c-6.6,6.6-9.8,14.8-9.8,24.6c0,9.6,2.9,17.6,8.6,23.8c5.9,6.3,13.9,9.4,24.3,9.4c9,0,16.4-1.3,21.9-4
		V271.8z"/>
	<rect x="1162.4" y="238.9" fill="#ffffff" width="7.9" height="65.6"/>
	<path fill="#ffffff" d="M1199.8,291.4c-4.7-4.9-6.9-11.3-6.9-19.4c0-8.4,2.6-15.1,7.6-20c5.2-5,11.5-7.4,19.2-7.4
		c5.7,0,10.8,1.2,15.5,3.5v-7.3c-3.9-2-9.3-3-16.4-3c-9.8,0-18,3.3-24.4,9.8c-6.4,6.6-9.7,14.7-9.7,24.5c0,9.8,3,17.9,8.9,24.1
		c6,6.3,14.2,9.3,24.8,9.3c7.8,0,14.2-1.5,19.3-4.6v-7.3c-6.1,3.4-12.2,5.1-18.5,5.1C1210.9,298.6,1204.5,296.3,1199.8,291.4z"/>
	<path fill="#ffffff" d="M1270.7,238.3l-29,66.2h7.8l6.2-14.8h30.9l6.2,14.8h8.1l-28.8-66.2H1270.7z M1258.1,283.8l12.8-30h0.4l12.8,30
		H1258.1z"/>
	<polygon fill="#ffffff" points="1318.2,297.7 1318.2,238.9 1310.1,238.9 1310.1,304.5 1352.4,304.5 1352.4,297.7 	"/>
	<path fill="#ffffff" d="M539.7,344.7c-9.4,0-17.6,3.3-24.2,9.9c-6.7,6.5-9.9,14.6-9.9,24c0,9.8,3.1,17.9,9.1,24.2
		c6.2,6.4,14.5,9.5,25,9.5c9.8,0,17.9-3.2,24.2-9.6c6.5-6.5,9.6-14.5,9.6-24.1c0-9.6-3.2-17.7-9.6-24.1
		C557.5,347.9,549.5,344.7,539.7,344.7z M558.4,397.8c-4.8,5.2-11,7.7-18.7,7.7c-7.8,0-14.2-2.5-18.9-7.5
		c-4.7-5.1-7.1-11.5-7.1-19.4c0-7.6,2.4-14.1,7.2-19.2c4.9-5.2,11.1-7.7,18.7-7.7c7.5,0,13.7,2.6,18.6,7.8
		c4.9,5.2,7.3,11.5,7.3,19.2C565.6,386.2,563.2,392.5,558.4,397.8z"/>
	<path fill="#ffffff" d="M628.1,379.1c3.2-3.9,4.8-8.1,4.8-12.8c0-6.4-2.3-11.4-6.9-15c-4.5-3.7-9.8-5.5-15.9-5.5h-23.4v65.5h8v-59.1
		h14.2c9.5,0,15.9,5.5,15.9,14.6c0,8.3-7.5,15.2-21.5,15.7v1.3l23.2,27.5h9.9L615,386.9C620.5,385.5,624.9,382.9,628.1,379.1z"/>
	<path fill="#ffffff" d="M691,403c-4.1,1.7-8.5,2.6-13.2,2.6c-8.3,0-14.8-2.5-19.3-7.3c-4.5-5-6.7-11.4-6.7-19.3c0-8.4,2.6-15.1,7.6-20
		c5.1-5.1,11.4-7.6,19.1-7.6c6.2,0,12,1.4,17.3,4.2V348c-4.4-2.4-10.2-3.6-17.7-3.6c-9.9,0-18.2,3.3-24.7,9.9
		c-6.6,6.6-9.8,14.8-9.8,24.6c0,9.6,2.9,17.6,8.6,23.8c5.9,6.2,13.9,9.4,24.3,9.4c9,0,16.4-1.3,21.9-4v-29.6H691V403z"/>
	<path fill="#ffffff" d="M735.1,345.2l-29,66.2h7.8l6.2-14.8H751l6.3,14.8h8.1l-28.8-66.2H735.1z M722.6,390.7l12.8-30h0.4l12.8,30
		H722.6z"/>
	<polygon fill="#ffffff" points="821.4,394.9 821,394.9 775.4,345 773.6,345 773.6,411.4 781.5,411.4 781.5,361.7 781.8,361.7 
		827.4,411.9 829.2,411.9 829.2,345.8 821.4,345.8 	"/>
	<rect x="846.1" y="345.8" fill="#ffffff" width="7.9" height="65.6"/>
	<polygon fill="#ffffff" points="868.9,352.4 900.2,352.4 864.9,410.4 864.9,411.4 912.3,411.4 912.3,404.7 877.3,404.7 912.3,346.9 
		912.3,345.8 868.9,345.8 	"/>
	<path fill="#ffffff" d="M944.9,345.2l-29,66.2h7.8l6.2-14.8h30.9l6.3,14.8h8.1l-28.8-66.2H944.9z M932.4,390.7l12.8-30h0.4l12.8,30
		H932.4z"/>
	<polygon fill="#ffffff" points="970.9,352.4 992,352.4 992,411.4 1000,411.4 1000,352.4 1020.9,352.4 1020.9,345.7 970.9,345.7 	"/>
	<rect x="1031.2" y="345.8" fill="#ffffff" width="7.9" height="65.6"/>
	<path fill="#ffffff" d="M1087.5,344.7c-9.4,0-17.6,3.3-24.2,9.9c-6.7,6.5-9.9,14.6-9.9,24c0,9.8,3.1,17.9,9.1,24.2
		c6.2,6.4,14.5,9.5,25,9.5c9.8,0,17.9-3.2,24.2-9.6c6.5-6.5,9.6-14.5,9.6-24.1c0-9.6-3.2-17.7-9.6-24.1
		C1105.2,347.9,1097.2,344.7,1087.5,344.7z M1106.1,397.8c-4.8,5.2-11,7.7-18.7,7.7c-7.8,0-14.2-2.5-18.9-7.5
		c-4.7-5.1-7.1-11.5-7.1-19.4c0-7.6,2.4-14.1,7.2-19.2c4.9-5.2,11.1-7.7,18.7-7.7c7.5,0,13.7,2.6,18.6,7.8
		c4.9,5.2,7.4,11.5,7.4,19.2C1113.4,386.2,1111,392.5,1106.1,397.8z"/>
	<polygon fill="#ffffff" points="1182.2,394.9 1181.8,394.9 1136.3,345 1134.5,345 1134.5,411.4 1142.3,411.4 1142.3,361.7 
		1142.6,361.7 1188.3,411.9 1190.1,411.9 1190.1,345.8 1182.2,345.8 	"/>

	<polygon fill="#ffffff" points="153.3,279.7 152.6,282.1 154.9,283.7 154.1,281.6 	"/>
	<polygon fill="#ffffff" points="96.5,337.3 93.6,336.2 94.1,340.2 96.1,341.8 96,343.6 98.3,344 98.2,340.9 	"/>
	<polygon fill="#ffffff" points="128.8,383.8 125.9,383.4 125.8,385.7 128.8,390.4 131.3,387.5 129,385.3 	"/>
	<polygon fill="#ffffff" points="284.1,314.4 282.7,316.1 282.9,319.1 284.1,320.4 285.4,319.4 285.1,316.1 285.5,315.3 	"/>
	<path fill="#ffffff" d="M304.6,283.4l-0.2-1.4l-3.2-0.2l-1.3,2.5l4.1,2.1l1.3,0.3l1.3-2c0,0,0.2-0.9,0.3-1.4
		C307,283.1,304.6,283.4,304.6,283.4z"/>
	<path fill="#ffffff" d="M301.5,205.8c0,0-0.1,1.8-0.2,2.4c-0.2,0.6,1.4,1.1,1.4,1.1s0.7,1.4,0.9,2c0.3,0.6,1.5,0.4,1.5,0.4l0.1-3
		l-1.4-2.5L301.5,205.8z"/>
	<polygon fill="#ffffff" points="286.2,218 287.5,219.6 284.3,221.4 285.5,221.9 285.4,223.8 284.2,225 284.2,227.9 282.6,228.7 
		281.6,231.6 285.7,231.2 287.5,230.3 287.4,228.7 293,229.4 293.8,226.8 291.2,226.1 289.2,226 287.3,227.4 287.6,224.3 288.9,224 
		288.3,221.6 291.1,221.5 290.6,216.7 289.3,216.3 	"/>
	<path fill="#ffffff" d="M258.4,168.9l-2.5-4.5l-3.5-1.5l-0.1-1.2l-1,0c-0.1,0.4-0.3,3.1-0.3,3.1l4.9,7.3l3.5,0.3l1,0.9h3.1l-2.5-3.6
		L258.4,168.9z"/>
	<polygon fill="#ffffff" points="267.5,177.1 267.1,175.9 264.9,176.1 264.8,178.6 266.5,179.9 271.5,179.8 269.9,177.7 	"/>
	<polygon fill="#ffffff" points="295.1,149.3 296.7,152.2 299.4,152.5 298.1,151.4 298.2,147.4 297.1,146 291.4,146.3 290.6,147.6 	"/>
	<path fill="#ffffff" d="M365.5,290.1l-0.4-3.5c0,0-2.4,2-2.5,2.5c0,0.4-0.1,2.2-0.1,2.2l1.9-0.2L365.5,290.1z"/>
	<polygon fill="#ffffff" points="350.9,324.1 349.5,324.1 348.9,325.8 347.7,326.5 348.1,328.5 350.5,328.3 353.1,325.4 353.3,322.7 
		351.6,322.5 	"/>
	<polygon fill="#ffffff" points="356.7,323 357.7,319.5 356,318.6 355.3,321.8 	"/>
	<polygon fill="#ffffff" points="360.1,315.7 358.8,315.2 357.8,316.8 358.3,317.4 	"/>
	<polygon fill="#ffffff" points="214.7,307.6 214.7,306.7 213.7,307.2 213.6,308.3 214.4,308.8 	"/>
	<path fill="#ffffff" d="M89.3,157.3c-16.7,14.5-24.5,10.1-39.8,33.4c0.9-1.4,3.5-5.4,3.5-6.5c3.2-44.6,4.8-46.5,10.4-76.3
		C42.8,137.9,34.3,172.5,41.3,212C56,200.7,86.5,184,89.3,157.3z"/>
	<path fill="#ffffff" d="M100.2,116.5c-21.3,11.3-39.4,28.7-41.1,56.1C84.4,158.3,94,134.5,100.2,116.5z"/>
	<path fill="#ffffff" d="M69.3,199.3c-15,8-29.2,25.1-34.6,39.5c2.8-22.4-5.2-58.3-5.5-85.2C7.6,188,14.5,236.1,29.6,271.5
		C42.6,246.8,67.3,227.4,69.3,199.3z"/>
	<path fill="#ffffff" d="M52.9,247.4c-12.3,12-16.4,26-21.2,41.4C19.4,266.8,13,242.9,3.9,219c-7.1,42.7,8.7,71.1,32.6,97.9
		C46.3,295.9,61.1,270.2,52.9,247.4z"/>
	<path fill="#ffffff" d="M58.8,378c2.1-29.4,9.8-60.4-3.2-87.8c-8.2,16.7-11,27.7-10.7,55.8c-9.4-23.6-28.5-39.1-44-63
		C5.2,325.7,22,352.8,58.8,378z"/>
	<path fill="#ffffff" d="M67.3,338.3c2.7,21.4-3.9,28.4,4.8,60.7c-24.2-24.6-39.7-27.5-54.2-49.3l13,34.1
		c12.3,26.7,41.8,35.4,67.9,40.1C90.6,394.4,89.9,360.3,67.3,338.3z"/>
	<path fill="#ffffff" d="M148.2,447.9c-22.8-8.9-23.1-56.7-52.8-68.8c0,0,0-0.1,0.1,0.4c12.6,21.3,4.2,42,21.9,56.7
		c-18.5-12-49.4-7.7-64.5-17.7c8.2,10.7,19.2,22.7,30.9,29.4C103.6,459.2,126.2,446.5,148.2,447.9z"/>
	<path fill="#ffffff" d="M232.5,457.5c-1.8,0.8-3.3,1.5-5,2.3c-1.7-0.8-3.2-1.5-5-2.3c-42.8-18.3-95.6,1.7-136.7,4.4
		c39.1,28.1,120.1-4.2,131.1-2.1c2.2,0.4,4.3,1.2,6.4,1.9c-31,14.3-43.6,26-43.2,34.3c0.3,5.8,15.7-12.3,25-18.7
		c7.3-5.6,14.8-10.5,22.5-13.9c7.6,3.4,15.2,8.4,22.4,13.9c9.3,6.4,24.7,24.5,25,18.7c0.4-8.3-12.2-20-43.2-34.3
		c2.1-0.7,4.3-1.5,6.4-1.9c11-2.1,92,30.2,131.1,2.1C328.2,459.2,275.4,439.2,232.5,457.5z"/>
	<path fill="#ffffff" d="M405.7,190.8c-15.4-23.5-23.1-19.1-39.9-33.6c2.7,26.7,33.2,43.4,48,54.8c7-39.6-1.5-74.1-22.1-104.2
		c5.6,29.7,7.1,31.7,10.3,76.3C402.1,185.3,404.9,189.7,405.7,190.8z"/>
	<path fill="#ffffff" d="M396,172.6c-1.8-27.4-19.9-44.8-41.1-56.1C361.1,134.5,370.6,158.3,396,172.6z"/>
	<path fill="#ffffff" d="M385.7,199.3c2.1,28,26.8,47.4,39.8,72.2c15.1-35.4,21.9-83.5,0.4-117.9c-0.2,26.9-8.3,62.8-5.5,85.2
		C414.9,224.4,400.7,207.4,385.7,199.3z"/>
	<path fill="#ffffff" d="M402.2,247.4c-8.2,22.7,6.6,48.5,16.3,69.5c23.9-26.8,39.8-55.3,32.7-97.9c-9.1,23.9-15.5,47.8-27.8,69.8
		C418.6,273.4,414.5,259.5,402.2,247.4z"/>
	<path fill="#ffffff" d="M399.4,290.2c-13,27.4-5.3,58.4-3.2,87.8c36.8-25.2,53.6-52.3,57.8-95c-15.5,23.9-34.6,39.4-44,63
		C410.4,317.9,407.7,306.9,399.4,290.2z"/>
	<path fill="#ffffff" d="M383,399c8.7-32.3,2.1-39.3,4.8-60.7c-22.6,22-23.3,56.1-31.5,85.5c26-4.7,55.5-13.4,67.9-40.1l13-34.1
		C422.7,371.5,407.2,374.4,383,399z"/>
	<path fill="#ffffff" d="M359.6,379.4c0.1-0.5,0.1-0.4,0.1-0.4c-29.7,12.1-30,59.9-52.8,68.8c21.9-1.3,44.6,11.3,64.5,0
		c11.6-6.7,22.6-18.7,30.8-29.4c-15.1,10-46,5.7-64.5,17.7C355.4,421.5,347,400.7,359.6,379.4z"/>
	<rect x="227.3" y="114" transform="matrix(0.7071 -0.7071 0.7071 0.7071 -14.004 194.0943)" fill="#ffffff" width="0" height="0"/>
	<path fill="#ffffff" d="M116.8,118.4l42.6,10.6c-53.6,25.5-90.8,80.1-90.8,143.2c0,87.6,71.2,158.8,158.8,158.8
		c87.5,0,158.8-71.2,158.8-158.8c0-63.2-37.2-117.8-90.8-143.3l42.4-10.6c2-0.5,3.5-2.4,3.5-4.5c0-2.1-1.4-4-3.5-4.5l-72.2-18.1
		l12.6-22.1c1-1.8,0.7-4.1-0.8-5.6c-1.4-1.4-3.8-1.8-5.5-0.7l-22.1,12.6l-18-72.2c-0.5-2.1-2.3-3.5-4.5-3.5c-2.1,0-3.9,1.4-4.5,3.5
		l-18.1,72.2l-22.1-12.6c-1.7-1-4.1-0.7-5.5,0.7c-1.5,1.5-1.8,3.8-0.7,5.6l12.6,22l-72.2,18.1c-2.1,0.5-3.5,2.3-3.5,4.5
		C113.3,116.1,114.8,117.9,116.8,118.4z M163.7,130.2l25.3,6.3l-9.9,17.3c-15.4,6.3-29.4,15.5-41.2,27l-19.7-19.7
		C131.4,148.2,146.8,137.8,163.7,130.2z M278.2,158.5l-0.4-0.8c2.5,1.1,4.9,2.4,7.3,3.6l-2.7,1.5l0.1,1.7l2.6,2.3l3.4,2.5l0.6,4.3
		l2.2,3.9l-2.5,2.8l3.4,2.2l0.4,3.4l3.4-1.1l5.1,2.4l-0.5,2.6l-1.4,3l2.5,3.4l-6.4,6.4c-0.8-0.7-1.7-1.3-2.4-2l-0.3-1.6l-2.1-0.4
		c-0.3-0.2-0.6-0.5-0.9-0.7l-0.7-1.7l-3.2-4.8l1.5-0.1l2.5,0l-4.6-6.2l-4.1-1.4l-2.8-1.9l-0.1-5l-0.7-1.5l-6.3-0.7l0,1l3.8,3.8
		l-2.3,3.3l4.4,1.3l1.1,2.1l-1.1,1.9l0.8,1.4c-10.2-6.2-21.6-10.7-33.8-12.8l6.1-24.3l22.1,12.6c1.8,1,4.1,0.7,5.5-0.7
		C278.9,162.6,279.2,160.3,278.2,158.5z M349.3,300.7l0-0.1l-0.5,1.2l-2.1,0.1l0,5l1.3-0.8c-5.7,20.5-16.5,39-31,53.8l-15.7-15.7
		l0.1-0.7l-3.4-4.1l-0.1,0c16.3-17.1,26.5-40.2,26.8-65.6h27.9C352.5,283,351.3,292,349.3,300.7z M102.3,273.7h27.9
		c0,2.5,0.2,5,0.5,7.5l-2.9-1.8l-3.2-0.2l-1.9,3.8l-3,0.2l-2,5l-2.6,5.3l0,7.5l-9.3,0.1C103.6,292.4,102.4,283.2,102.3,273.7z
		 M292.7,204.5l0-0.3c0.1,0.1,0.3,0.2,0.5,0.4l0,0L292.7,204.5z M310.7,227.7l-1.9,1.4l-4.8-11.9C306.4,220.6,308.7,224,310.7,227.7
		z M290.8,213.4l4.6-0.7l1,5l4.2,2.1l-0.5,4.2l-3.1,0.6l3.1,2.1l-2.3-0.4l-0.2,2.3l4.1,2.6l0.5,5l5-0.4l3.5,1.8l1.6,4.4l-2.8,3.2
		l1.3,4.1l-1,5.2l-2.8,0.5l-0.2,8.7l1.4-1l2.9-6.6l2.3-1.5l0.5-8l-0.8-2.1l1.5-1.9l0.5-5.2c4.2,10.4,6.6,21.7,6.8,33.5H294
		c0-2.2-0.2-4.4-0.5-6.6l1.7-1.8l-0.4-2.7l1.5-4l5.4-0.2l3-0.8l0.8-2.2l1-1.5l1.5-1.3l-0.7-5.3l-1,2.2l-1.4,0.9l-0.7,1.5l-1.6,0.4
		l-0.3,3.6l-4.1,0.4l0.8-6.9l-3.4-4.3l-2.6-0.7l-2.9,2.6l-2,1.3l-0.4-3.8l-1.8-0.5c-1.8-3.4-4-6.7-6.4-9.7l0.5-0.5l-0.8-1.4
		l-1.3-0.1c-0.9-1-1.8-2.1-2.7-3.1l16.3-16.3l-0.3,1.5l-1,0.5L290.8,213.4z M300.4,212.5c0.9,1.1,1.8,2.3,2.7,3.5l-1,0.5
		L300.4,212.5z M295.2,338.1l-14.8-14.8l-0.3-0.9l-0.4,0.2l-3.5-3.5l0-1.5c6.2-6.7,11-14.6,14.1-23.4l0.1,0.1l5.8-2.8l3.1-0.1
		l1.4-1.3l-1.4-3.2L297,286l-0.4-1.8l-1.7-0.5l-0.5-5l-0.6-1.4c0.1-1.1,0.2-2.3,0.2-3.5h27.9C321.5,298.7,311.4,321.3,295.2,338.1z
		 M282.1,349.2l-2.7-1.7l0.1-3.6l2.8-4.4l-0.7-5.4l0-5.6l11.5,11.5C289.7,343.4,286,346.4,282.1,349.2z M265.7,236l0.2,0.8l-1.7,4.7
		l-0.2-2l-1.1-0.8L265.7,236z M288.4,270.3l2.5-2.1c0.1,0.9,0.2,1.8,0.2,2.7h-2.6L288.4,270.3z M257.3,326.1l-6.4-3l8.5,0.4l3,2
		c-1,0.6-2,1.2-3,1.8L257.3,326.1z M279,309.6l-0.9-3.2l-5.8,1.4l-2.5,4.8l-3.5-3.5l3.3-0.8l1.4-3l2.9,0.3l2.9-5.4l4.2-5.1l4.6-0.1
		l0.1-2.4l2.1,0.3C285.6,299,282.6,304.6,279,309.6z M228.9,317.2l2,0.8l0.2,2.4l0.8,1.2l1-2.1l0.9-1.2l1.1,1l-0.2-1.5l-2.3-0.7
		l-3.4-2.2c0,0,0-0.1-0.1-0.2v-3c1.2-0.1,3.4,0.3,3.4,0.3l2.9,1.9l2.6,1.6l-0.4,1.5l0.2,1.2l2.1-1.4l-1.1-1.6l0.9-1.2l-0.5-1.5
		l0.4-3l0.1-2.7l3.2,1.4l1.2-0.9l-1.1-1.2l1.8-1.7l2.6,0.7l5.2,1.4l-1,3l-5,0.4l-5.7,4l1,3.7l2.9,0.1l4-3.1l4.1-0.1l1.1,1.2l-3,2.3
		l-3.3,1.4l-3.3,2.9l-3.5-1.1l-1.5,1.1l-9.8,2.6l-0.5-0.4V317.2z M266.4,326.2l3.2,1.5l3.4-1l0.9,0.8l0.6-1.2l1.3-3.6l1.5,1.5
		l-1,4.5l-11,1.9l-3.1-1.7C263.7,328.1,265.1,327.1,266.4,326.2z M276.2,231.4c0.1,0.2,0.3,0.3,0.4,0.5l0.2,0.7l0.4,0
		c0.6,0.8,1.1,1.6,1.7,2.4l-1.5,0.1l-3.1-0.9l-2.5-1.9l-2.1,1.3l1.1,1.7l-2.2,3.3l-1-4.1l-0.5,0.2l6.4-6.4c0.7,0.7,1.2,1.4,1.9,2.1
		l-0.2,0.2L276.2,231.4z M264.6,233.1l0.2-0.3l0.4-0.2L264.6,233.1z M216.7,241.3l1.4,2.6l5.4,4.1l1.5-0.8l5,0.4l-0.9,4l-1.1,1.5
		l2,1.7l2.6,0.3v4l1.6,3.7l-3,0.9l-1.7,1.1l-0.4,1.5l5.1,0.8l1.2,3.5l-1.4,1.5l-0.1,1.8l2.3,0.5l-0.4,2.3l-1.1,1.2l-0.3,3l0.8,3
		l-1.8,1.3l-4.3,0l-2.4,1.7l-1.6,7.1l-3.8,3L221,300l-0.1,3.4l3-2.7l0,2.4l2.1,0.1l2.5-4.3l-0.3-3.7l1.5-1.7l1.8-0.1l1.2,3.5
		l2.8,0.6l0.4,1.8l-5,2.2l-0.4,3.4l-0.3,0.1c-0.9,0.1-1.8,0.3-2.7,0.3c-1.3,0-2.5-0.2-3.7-0.4l0-0.5l-1,0.4
		c-9.9-1.4-18.4-7.2-23.4-15.4c1.9-0.2,6.8-0.5,6.8-0.5l0.7-2.7l2.4-1.1l3.9-0.4l1.2-6.6l2.8-4.4l-3.6-4.1l-1.2,0.2l-0.9,1.8
		l0.2-5.4l-2.6-2.2l0.1-3.6l-2.9-1.9l-0.4,2.7l-1.2,1.1l-1.4-1.3l1.9-3.8l-0.2-1.8l-2.1,0.5l-3,1.1l-0.2-2.4c0,0,0,0,0,0l1.4,0.4
		l2.7-1.1l-0.7-3.7c0.1-0.1,0.1-0.1,0.2-0.2l6.6-0.6l3.3-3.2l-0.1-3.6C214.3,242.2,215.5,241.7,216.7,241.3z M144.1,270.9l0.5-2.1
		l4.2-1.3l0.2-4.5l-1.4-2.1l1.7-4.2l3.6-1.9l2.9,0.4l0.3,6.6l1.4,1l-1.5,1.5l1.1,2.5l-0.1,3.6l-0.5,0.6H144.1z M196.5,280.7l1.4-5.6
		l3.4-4.7l1.6-4.1l3.2,1.3l-0.1,3.3l-1.8,1.4l2,1.9l-3,1.4l-2.4,1.1l0.2,2.1l-0.9,1.5l-2.1,1.7l-0.9,3.1c-0.6-1.5-1-3-1.4-4.6
		L196.5,280.7z M190.6,238.4l-4.1,0.1l-6.6-3.9l-3.1-0.7c1.5-2,3-3.9,4.7-5.6l9.5,9.5L190.6,238.4z M173.7,233.2l-0.5-0.1l-4.2,1.9
		l-7.1,1.5l-5.4,3.4l-1.2,1.2l2,0.7l3.9-1.3l3.9-1l1.7,0.7l-0.7,1.5l-3.5,0.2l-8,1.7l-4.4,0.4l-2.2,3.5l-0.7,2.4L145,252l0.7,4.6
		l-1.3,3.2l-1.6,2.3l-0.4,2.4l-1.5,1.4l-0.1,3l-2.6-1l0,3H133c0.4-25,10.5-47.6,26.7-64.3l19.7,19.7
		C177.3,228.5,175.4,230.8,173.7,233.2z M138.2,273.9l-1.6,3.8l0.8,2.7l-1.8,1.7l-2-0.2c-0.3-2.7-0.5-5.5-0.5-8.2h5.2L138.2,273.9z
		 M130.2,270.9h-27.9c0.4-33.4,13.9-63.8,35.7-86l19.7,19.7C141,221.8,130.5,245.1,130.2,270.9z M138.5,348.1l3.9,4.7l3.2-0.7
		l-7.6,7.6c-4-4.1-7.6-8.5-11-13.1L138.5,348.1z M158.8,337l-0.7-1.5l-7.3-9.6l-0.3-7.2l-0.2-3.6l-3.6-4.1l0.2-4.8l1.9-3.2l-1-4.2
		l-3.3,0.8l0.4-8.1l-4.9-8.9l0.4-2.7l-2-3.1l1.6-2.6l2.1-0.3h7.1l-0.1,1.3l1.4,3l-2.7,1.7l-0.2,4.8l1.9,4l1.8,6.4l0.5-6l1.9-4.1
		l-3,1.1l0.1-3.6l1.6-4.1l-1.6-3.7l0.3-0.8h4.2l2,7l2.2-4.1l1.5,0.6c1.2,15.9,7.9,30.2,18.3,41.1l-19.7,19.7
		C159.4,337.7,159.1,337.4,158.8,337z M164.2,279.9l7.6,0.6l-0.1,2.7l3-0.8l1.3,3l2.6,1.6l2,0.4l-0.4,3.3l2.2-3.2l0.4,5.4l2.9,2.2
		l0.2-4.5l2.1-0.8l0.2-4.2l3.9-2.8l0.1-3.3l0.3,0.1c0.6,2.7,1.5,5.2,2.6,7.6l-0.6,0.5c0,0,0.5,0.3,1.2,0.6c1.5,3,3.3,5.8,5.5,8.2
		l-19.7,19.7C172.1,306.6,165.8,294,164.2,279.9z M203.1,298.6c3.6,3.3,8,5.8,12.7,7.5l-0.5,0.7l-0.3,2.1l-0.7,1.3l1.3-0.3l1.4-0.5
		l0.6-0.3l-0.7-0.7l0.3-1.6c1.4,0.4,2.8,0.7,4.2,1l-0.3,1.5l-3.7,0.9l-2.4,2.3l3.1,2.1l-1.4,2.2l-3.4,0.2l-2,0.8l-0.8,1l-0.9,2.7
		l1.4,1.4l1.5,1.4l1.5-0.4l4.1-0.7l1.7-1.6l0.2-4.7l4.4,0.2l1.3,0.1v6.5l-6.9,0.7l-2.1,1.7l-4.7-0.8l-2.1,1.1l-3,0.5l-2.5,3.8
		l-1.8,0.8c-7.3-3-13.9-7.4-19.6-12.8L203.1,298.6z M231.1,362.8l6.1,3l0.2,0.5c-2.8,0.3-5.6,0.5-8.5,0.5v-6.3L231.1,362.8z
		 M228.9,369.6c3.3,0,6.6-0.3,9.8-0.7l1.4,3l-1.6,4.1l4.4,7.1l3.5,0.1l1,4l4.8,3.8l5.5,2.3l2.8-3.5l4.4,0.2l2.8-2.9l4.8-2.2l6.7-6.6
		l1.1-5.7l1.6-2.3l0.6-8.1l3.4-3.2l0.2-4.8l-1.8-3.4c3.8-2.8,7.5-5.7,10.9-9l1,1l0.1,2.2l-2.7,2l-0.1,3.9l1.4,1.6l-0.2,5.7l2.4-0.2
		l3.3-2l2.1-1.4l0-5.6l12.6,12.6c-22.3,21.8-52.6,35.3-86,35.7V369.6z M324.7,270.9c-0.2-15.7-4.2-30.4-11-43.5l-0.1-1.6
		c0,0-1.4-2.6-1.2-3.2c0.2-0.6-2-2.9-2-2.9s-0.5,0.2-1,0.3c-0.5-0.7-0.9-1.5-1.4-2.2l0.8-3.6l-1-1.4l-1.4-0.8l-1.1,2.2
		c-2.5-3.4-5.2-6.6-8.1-9.6l6-6l0.9,1.2l2.1-0.7l1.3,1.4l1.4-0.8l0.5,3.2c0,0,0.3,2.2,1.2,2.3c0.9,0.2,3.7,0.2,3.7,0.2l0,1l3.9,1.3
		c0,0,0.2,1.3,0.3,1.9c0.1,0.6,1.6,0.8,1.6,0.8l2.6,2.3l1.5,3.9c0,0,2.1,1.4,2.7,1.4c0.6,0,2.8,0,2.8,0l1.4-3l4.2-2.1l-0.2-3.3
		l-2.3-5c12.4,19.2,19.7,41.8,20,66.2H324.7z M282.8,195.9l0.3,2l5.3,3.5l0.3,4.5l1.9,1.2l-17.1,17.1c-10-9.5-22.9-16-37.2-17.9
		l6.8-27.1C257.7,181.7,271.2,187.5,282.8,195.9z M271.5,226.3l-0.3,0.3l-3.9-3.1l-3.4-0.1l-1.1,0.7l0.1-1.7l-4.9-1.3l-2.8,0.8
		l-0.7,1.9l-3.2,2l-4-0.5l-0.8-1.2l-1.2-0.2l-0.3,1.5l-1.6-0.2l-0.2,1.5l-1.8,0.4l0,0.6l2.9,0.4l1.2-0.4l1.9,0.4l0.8,2.6l5.3-4.3
		l4.6-1.4c0,0,4,2.9,4.4,2.9c0.4,0,2.8,0.1,2.8,0.1l4.6-0.1l-1.9,1.9l-4-0.6l-4,1l0.7,5l-5.6-0.3l-1.8-2.9l-4.4-0.5
		c0,0-4.2,0.9-5.2,0.8c-1-0.1-0.4,6.1-0.4,6.1l-2.1,0.5l-0.7,0.2c-0.9-0.4-1.9-0.6-2.8-0.9l0,0l-2.2-0.7c-0.1,0-0.1,0-0.2-0.1
		l-0.5-1.1l-1.8-1.7l3.1-3c0,0,1.6-2.8,1.1-2.3c-0.4,0.4-0.7-1.4-0.7-1.4l-6.1,0.8l0.3,2.9l-2,2.6v-6.8c1.4-0.5,2.5-1.5,2.9-3
		l3.8-15.3C249.4,210.9,261.9,217.1,271.5,226.3z M226,234.1l-3.1-0.4l-2.2-1.3l-0.6,1.6l2.9,1.8l-0.6,1.2c-3,0.4-5.9,1.1-8.6,2.2
		l-0.3-0.1l-0.2-2.4l2.1-1.4l4.2-1.6l0.1-1.8l-8.3,1.7l-2.3-0.4l0.4-3.6l-1.5,0.5l-2.5,3.2l-1,3.3l-4.8,2.8l-3.5-0.4l-0.9-0.9
		l-1-2.5l-1.6-0.1l-9.2-9.2c9.5-9.1,21.9-15.3,35.6-17.1l3.8,15.2c0.4,1.6,1.7,2.6,3.2,3.1V234.1z M181.4,224.3l-19.7-19.7
		c13.4-13,30.7-22,49.9-25.2l6.8,27.1C204.1,208.4,191.3,214.8,181.4,224.3z M159.7,202.6L140,182.8c10.6-10.4,23.1-18.8,36.8-24.9
		l-0.3,0.6c-1,1.8-0.7,4.1,0.7,5.6c1.5,1.4,3.8,1.8,5.5,0.7l22.1-12.6l6.1,24.3C191.2,180,173.4,189.2,159.7,202.6z M183.4,158.3
		l16.4-28.3l27.5-16L183.4,158.3z M116.2,163.1l19.7,19.7c-22.3,22.8-36.2,53.8-36.5,88.1H71.5C71.9,229,88.9,191,116.2,163.1z
		 M71.5,273.7h27.9c0.1,9.7,1.4,19,3.5,28.1l-0.9,0.5l-5-0.2L94,299l-3.8,0.4l-3.3,1.4l-4.1-0.5l-1.3,2l-1.1,5.1l-0.3,6.6l2.5,2.2
		l-0.3,6.6l5.1,4.7l0.6-7.5l5.2,2.6l0.5-3.6l3.1,2.2l0.2,3.3l3.2,0.5l4.5,4.1l2.2,4.6l5.8,2l0.8,2.8l8.5,6.2c4.2,6,8.8,11.8,13.9,17
		l-19.7,19.7C88.9,353.7,71.9,315.7,71.5,273.7z M226,428.2c-41.9-0.4-79.9-17.4-107.8-44.7l19.7-19.7
		c22.8,22.3,53.8,36.2,88.1,36.5V428.2z M226,397.5c-33.5-0.4-63.8-13.9-86.1-35.7l10.7-10.7l3.2-0.7l7.4-0.6l1.3-4.1l-0.7-1.5
		c17,15.5,39.4,25.1,64,25.5V397.5z M161.7,340.1l19.7-19.7c5.3,5.1,11.4,9.2,18.1,12.3l-1.6,0.7l-1.7,6.2l-1.9,2.9l5.1,5.9
		l-0.4,2.7l4.6,2.9l9.4-0.2l2,2.2l10.8,1.1l0.3,0.3v9.3C201,366.4,178.4,356.3,161.7,340.1z M228.9,428.2v-27.9
		c34.2-0.4,65.3-14.2,88.1-36.5l19.7,19.7C308.8,410.9,270.8,427.8,228.9,428.2z M338.6,381.5l-19.7-19.7
		c22.3-22.8,36.2-53.8,36.5-88.1h27.9C383,315.7,366,353.7,338.6,381.5z M383.4,270.9h-27.9c-0.4-34.2-14.2-65.3-36.5-88.1
		l19.7-19.7C366,191,383,229,383.4,270.9z M336.6,161.1l-19.7,19.7c-1.3-1.3-2.8-2.5-4.2-3.7l1.4-2.7l-1.1-1.3l-2-0.1
		c0,0-0.9-3.5-0.8-3.8c0-0.4-3.6-5.2-3.6-5.2l-0.5-2.7l-1.1,0.3l-1.1,1l-1.1-0.5l-2-0.5l-1-2.6l-3.2-0.3L295,157l-3.4,1l-4,0.6
		l-0.2,0.7c-3.9-2.1-7.9-3.9-12-5.6l-9.8-17.2l25.5-6.4C308,137.7,323.5,148.2,336.6,161.1z M196.1,95.4l31.2,18.5l-43.9-44
		l28.3,16.4l15.6,27.6l0,0V8.5l18.5,74.2l-18.5,31.2l44.4-44l-16.4,28.3l-28,15.7l0,0h105.4l-74.2,18.5L227.3,114v0v0l0,0v0
		l44.4,44.3l-28.3-16.4l-16.1-28v105.4l-18.5-74.2l18.5-31.2l0,0H121.9L196.1,95.4z"/>
</svg>
