<svg version="1.1" id="Layer_1" xmlns="http://www.w3.org/2000/svg" xmlns:xlink="http://www.w3.org/1999/xlink" x="0px" y="0px"
	 viewBox="0 0 1920 470" style="enable-background:new 0 0 1920 470;" xml:space="preserve">

<g>
	<path fill="#FFFFFF" d="M101.5,269.1c0,12.5-5,22.6-15,30.1c-9.2,7-20.2,10.5-33.1,10.5c-30.5,0-48.2-14.4-53.4-43l19.7-3.4
		c1.9,9.7,5.5,16.5,10.8,20.7c5.3,4.1,12.9,6.2,22.8,6.2c7.3,0,13.5-1.6,18.8-4.9c6.3-3.9,9.4-9.3,9.4-16.2
		c0-8.5-6.6-14.8-19.7-18.8c-12.3-3.5-24.5-7-36.6-10.5c-13.2-6-19.7-15.7-19.7-29.1c0-11.5,4.6-20.5,13.9-26.9
		c8.1-5.5,18.2-8.3,30.2-8.3c12.5,0,22.5,2.4,30.1,7.3c7.5,4.9,14,13,19.3,24.2l-18,8.3c-4.1-8-8.2-13.4-12.2-16.2
		c-4-2.8-10.4-4.1-19.2-4.1c-16.2,0-24.2,5.2-24.2,15.6c0,6.8,6.6,11.9,19.7,15.4c21,5.8,33.3,9.6,36.6,11.5
		C94.9,244.3,101.5,254.8,101.5,269.1"/>
	<polygon fill="#FFFFFF" points="218.7,307.6 131.6,307.6 131.6,176.5 218.7,176.5 218.7,195.8 151.3,195.8 151.3,231.2 210.3,231.2 
		210.3,249.2 151.3,249.2 151.3,288.3 218.7,288.3 	"/>
	<polygon fill="#FFFFFF" points="343.7,307.6 325.5,307.6 269.7,216.9 269.7,307.6 249.7,307.6 249.7,176.5 268,176.5 324,267.2 
		324,176.5 343.7,176.5 	"/>
	<path fill="#FFFFFF" d="M477,242c0,12.5-0.5,22-1.5,28.6c-2.1,14.5-8.3,24.6-18.4,30.3c-8.1,4.5-20.2,6.8-36.1,6.8h-41.5V176.5h41.5
		c15.9,0,27.9,2.2,36.1,6.8c10.1,5.6,16.3,15.7,18.4,30.3C476.4,220,477,229.5,477,242 M457,242c0-13.9-0.4-22.9-1.1-26.9
		c-1.1-7-4.2-12-9.2-15c-5-2.9-13.6-4.4-25.8-4.4h-21.6v92.3h21.6c12.1,0,20.7-1.4,25.8-4.3c5-2.9,8.1-7.9,9.2-15
		C456.6,264.8,457,256,457,242"/>
	<path fill="#FFFFFF" d="M619.6,307.6h-21.4l-14.7-36.8h-50.7l-14.7,36.8h-21.4l52.1-131.2h18.8L619.6,307.6z M576,251.8l-17.9-45.1
		l-17.9,45.1H576z"/>
	<rect x="644" y="176.5" fill="#FFFFFF" width="20.5" height="131.2"/>
	<polygon fill="#FFFFFF" points="850.3,195.8 784.8,195.8 784.8,231.2 843.6,231.2 843.6,249.2 784.8,249.2 784.8,307.6 765,307.6 
		765,176.5 850.3,176.5 	"/>
	<path fill="#FFFFFF" d="M977,307.6h-23.1L928,261.2c-3.4-6-7.7-9-13-9h-15.6v55.4h-19.9V176.5h47c13.2,0,23.7,3,31.8,8.8
		c8.8,6.8,13.1,16.5,13.1,29.3c0,8.9-2.4,16.5-7.3,22.8c-4.9,6.3-11.7,10.5-20.5,12.5L977,307.6z M950.5,214.6
		c0-12.5-8-18.8-24.1-18.8h-27.1V234h27.1C942.5,234,950.5,227.5,950.5,214.6"/>
	<path fill="#FFFFFF" d="M1115.3,307.6h-21.4l-14.7-36.8h-50.7l-14.7,36.8h-21.4l52.1-131.2h18.8L1115.3,307.6z M1071.7,251.8
		l-17.9-45.1l-17.9,45.1H1071.7z"/>
	<polygon fill="#FFFFFF" points="1251.2,307.6 1231.1,307.6 1231.1,233.6 1203.3,307.6 1186.5,307.6 1158.9,233.6 1158.9,307.6 
		1138.8,307.6 1138.8,176.5 1157.2,176.5 1194.8,276.6 1232.6,176.5 1251.2,176.5 	"/>
	<polygon fill="#FFFFFF" points="1374.1,307.6 1286.9,307.6 1286.9,176.5 1374.1,176.5 1374.1,195.8 1306.6,195.8 1306.6,231.2 
		1365.6,231.2 1365.6,249.2 1306.6,249.2 1306.6,288.3 1374.1,288.3 	"/>
	<polygon fill="#FFFFFF" points="1538.5,176.5 1506.4,307.6 1488.5,307.6 1466.2,220.2 1444,307.6 1426.5,307.6 1393.8,176.5 
		1414.5,176.5 1435.7,263.3 1457.9,176.5 1474.4,176.5 1496.8,263.3 1517.8,176.5 	"/>
	<path fill="#FFFFFF" d="M1665.6,242c0,19.3-4,34.8-12,46.6c-9.4,13.8-23.4,20.7-42.1,20.7c-18.5,0-32.6-6.9-42.1-20.7
		c-8-11.8-12-27.3-12-46.6c0-19.3,4-34.8,12-46.6c9.5-13.8,23.5-20.7,42.1-20.7c18.7,0,32.7,6.9,42.1,20.7
		C1661.5,207.2,1665.6,222.8,1665.6,242 M1645.6,242c0-31.8-11.4-47.7-34.2-47.7c-22.8,0-34.2,15.9-34.2,47.7
		c0,31.8,11.4,47.7,34.2,47.7C1634.2,289.8,1645.6,273.9,1645.6,242"/>
	<path fill="#FFFFFF" d="M1793.2,307.6H1770l-25.9-46.4c-3.4-6-7.7-9-13-9h-15.6v55.4h-19.9V176.5h47c13.1,0,23.7,3,31.7,8.8
		c8.8,6.8,13.1,16.5,13.1,29.3c0,8.9-2.4,16.5-7.3,22.8c-4.9,6.3-11.7,10.5-20.5,12.5L1793.2,307.6z M1766.6,214.6
		c0-12.5-8-18.8-24-18.8h-27.1V234h27.1C1758.6,234,1766.6,227.5,1766.6,214.6"/>
	<polygon fill="#FFFFFF" points="1920,307.6 1894.6,307.6 1840.7,242 1840.7,307.6 1820.8,307.6 1820.8,176.5 1840.7,176.5 
		1840.7,240.5 1887.1,176.5 1910,176.5 1862.9,241.3 	"/>
	<polygon fill="#FFFFFF" points="52,392.3 14.5,392.3 14.5,416.1 48.2,416.1 48.2,423 14.5,423 14.5,456.7 7.5,456.7 7.5,385.2 
		52,385.2 	"/>
	<path fill="#FFFFFF" d="M117.2,421c0,10.5-2.1,18.9-6.2,25.2c-4.9,7.7-12.4,11.5-22.3,11.5c-10,0-17.4-3.8-22.4-11.5
		c-4.1-6.4-6.1-14.8-6.1-25.2c0-10.4,2-18.9,6.1-25.2c4.9-7.7,12.4-11.5,22.4-11.5c10,0,17.4,3.8,22.3,11.5
		C115.2,402.1,117.2,410.5,117.2,421 M110.2,421c0-19.7-7.1-29.6-21.4-29.6c-14.2,0-21.3,9.9-21.3,29.6c0,19.8,7.1,29.6,21.3,29.6
		C103,450.6,110.2,440.7,110.2,421"/>
	<path fill="#FFFFFF" d="M178.9,456.7h-8.3l-15.5-26.5c-2.2-3.8-5.1-5.6-8.6-5.6h-10.4v32.2h-7.1v-71.5h24.5c7,0,12.5,1.5,16.5,4.5
		c4.5,3.4,6.8,8.4,6.8,15.2c0,5.1-1.6,9.5-4.8,13.1c-3.3,3.8-7.6,6-12.9,6.5c1.2,1,2.2,2.4,3.2,4.1L178.9,456.7z M169.7,404.9
		c0-8.4-5.4-12.6-16.1-12.6h-17.4v25.9h17.7C164.5,418.2,169.7,413.7,169.7,404.9"/>
	<path fill="#FFFFFF" d="M263.8,421c0,13.4-1.6,22.4-4.7,26.9c-4,5.9-12.4,8.8-25.2,8.8h-21.4v-71.5h21.4c12.4,0,20.7,3,24.9,9
		C262.1,399,263.8,407.9,263.8,421 M256.4,421c0-11.1-1-18.2-2.9-21.5c-2.9-4.8-9.4-7.2-19.7-7.2h-14.3v57.4h14.3
		c7.2,0,12.5-1.1,15.9-3.2c3-1.9,4.9-5.1,5.8-9.6C256.2,434,256.4,428.7,256.4,421"/>
	<rect x="277" y="385.2" fill="#FFFFFF" width="7.3" height="71.5"/>
	<path fill="#FFFFFF" d="M349.7,436.3c0,6.6-2.6,11.9-7.9,15.9c-4.8,3.6-10.5,5.4-17.3,5.4c-7.1,0-13.1-1.5-17.9-4.6
		c-5.4-3.4-8.7-8.4-9.9-15.1l7-1.7c1.8,9.8,8.8,14.7,20.8,14.7c4.9,0,9-1.2,12.4-3.6c3.8-2.7,5.7-6.3,5.7-11
		c0-5.8-3.7-9.9-11.2-12.3c-6.9-1.8-13.8-3.7-20.8-5.5c-7.5-3-11.2-8.2-11.2-15.7c0-5.9,2.4-10.6,7.3-13.9c4.2-2.9,9.4-4.4,15.7-4.4
		c6.2,0,11.2,1.1,15.2,3.3c4.2,2.4,7.6,6.2,10,11.6l-6.4,3c-1.9-4.1-4.4-7-7.6-8.6c-2.7-1.4-6.5-2.1-11.3-2.1
		c-4.2,0-7.8,0.8-10.5,2.3c-3.6,2-5.3,4.9-5.3,8.9c0,5,3.8,8.6,11.3,10.8c6.9,2,13.8,3.9,20.7,5.8
		C345.9,422.8,349.7,428.5,349.7,436.3"/>
	<path fill="#FFFFFF" d="M418,456.7h-7.7l-8.2-21.2h-31.4l-8.3,21.2h-7.6l27.7-71.5h7.8L418,456.7z M399.6,428.6l-13.1-33.8l-13.1,33.8
		H399.6z"/>
	<path fill="#FFFFFF" d="M476.3,436.3c0,6.6-2.6,11.9-7.9,15.9c-4.8,3.6-10.5,5.4-17.3,5.4c-7.1,0-13.1-1.5-17.9-4.6
		c-5.4-3.4-8.7-8.4-9.9-15.1l7-1.7c1.8,9.8,8.8,14.7,20.8,14.7c4.9,0,9-1.2,12.4-3.6c3.8-2.7,5.7-6.3,5.7-11
		c0-5.8-3.7-9.9-11.2-12.3c-6.9-1.8-13.8-3.7-20.8-5.5c-7.5-3-11.2-8.2-11.2-15.7c0-5.9,2.4-10.6,7.3-13.9c4.2-2.9,9.4-4.4,15.7-4.4
		c6.2,0,11.2,1.1,15.2,3.3c4.2,2.4,7.6,6.2,10,11.6l-6.4,3c-1.9-4.1-4.4-7-7.6-8.6c-2.7-1.4-6.5-2.1-11.3-2.1
		c-4.2,0-7.8,0.8-10.5,2.3c-3.6,2-5.3,4.9-5.3,8.9c0,5,3.8,8.6,11.3,10.8c6.9,2,13.8,3.9,20.7,5.8
		C472.5,422.8,476.3,428.5,476.3,436.3"/>
	<polygon fill="#FFFFFF" points="534.2,392.2 511.9,392.2 511.9,456.7 504.8,456.7 504.8,392.2 482.5,392.2 482.5,385.2 534.2,385.2 	
		"/>
	<polygon fill="#FFFFFF" points="589,456.7 543.5,456.7 543.5,385.2 589,385.2 589,392.3 550.6,392.3 550.6,415.9 584.2,415.9 
		584.2,422.8 550.6,422.8 550.6,449.7 589,449.7 	"/>
	<path fill="#FFFFFF" d="M651.2,456.7h-8.3l-15.5-26.5c-2.2-3.8-5.1-5.6-8.6-5.6h-10.4v32.2h-7.1v-71.5h24.5c7,0,12.5,1.5,16.5,4.5
		c4.5,3.4,6.8,8.4,6.8,15.2c0,5.1-1.6,9.5-4.8,13.1c-3.3,3.8-7.6,6-12.9,6.5c1.2,1,2.2,2.4,3.2,4.1L651.2,456.7z M642,404.9
		c0-8.4-5.4-12.6-16.1-12.6h-17.4v25.9h17.7C636.7,418.2,642,413.7,642,404.9"/>
	<path fill="#FFFFFF" d="M734.5,456.7h-8.3l-15.5-26.5c-2.2-3.8-5.1-5.6-8.6-5.6h-10.4v32.2h-7.1v-71.5h24.5c7,0,12.5,1.5,16.5,4.5
		c4.5,3.4,6.8,8.4,6.8,15.2c0,5.1-1.6,9.5-4.8,13.1c-3.3,3.8-7.6,6-12.9,6.5c1.2,1,2.2,2.4,3.2,4.1L734.5,456.7z M725.3,404.9
		c0-8.4-5.4-12.6-16.1-12.6h-17.4v25.9h17.7C720.1,418.2,725.3,413.7,725.3,404.9"/>
	<rect x="745.4" y="385.2" fill="#FFFFFF" width="7.3" height="71.5"/>
	<path fill="#FFFFFF" d="M818.1,436.3c0,6.6-2.6,11.9-7.9,15.9c-4.8,3.6-10.5,5.4-17.3,5.4c-7.1,0-13.1-1.5-17.9-4.6
		c-5.4-3.4-8.7-8.4-9.9-15.1l7-1.7c1.8,9.8,8.8,14.7,20.8,14.7c4.9,0,9-1.2,12.4-3.6c3.8-2.7,5.7-6.3,5.7-11
		c0-5.8-3.7-9.9-11.2-12.3c-6.9-1.8-13.8-3.7-20.8-5.5c-7.5-3-11.2-8.2-11.2-15.7c0-5.9,2.4-10.6,7.3-13.9c4.2-2.9,9.4-4.4,15.7-4.4
		c6.2,0,11.2,1.1,15.2,3.3c4.2,2.4,7.6,6.2,10,11.6l-6.4,3c-1.9-4.1-4.4-7-7.6-8.6c-2.7-1.4-6.5-2.1-11.3-2.1
		c-4.2,0-7.8,0.8-10.5,2.3c-3.6,2-5.3,4.9-5.3,8.9c0,5,3.8,8.6,11.3,10.8c6.9,2,13.8,3.9,20.7,5.8
		C814.3,422.8,818.1,428.5,818.1,436.3"/>
	<polygon fill="#FFFFFF" points="877.9,456.7 869,456.7 837,421.3 837,456.7 830,456.7 830,385.2 837,385.2 837,420.3 866.8,385.2 
		875.1,385.2 845.3,420.6 	"/>
	<path fill="#FFFFFF" d="M959.7,456.7h-8.3l-15.5-26.5c-2.2-3.8-5.1-5.6-8.6-5.6H917v32.2h-7.1v-71.5h24.5c7,0,12.5,1.5,16.5,4.5
		c4.5,3.4,6.8,8.4,6.8,15.2c0,5.1-1.6,9.5-4.8,13.1c-3.3,3.8-7.6,6-12.9,6.5c1.2,1,2.2,2.4,3.2,4.1L959.7,456.7z M950.5,404.9
		c0-8.4-5.4-12.6-16.1-12.6H917v25.9h17.7C945.2,418.2,950.5,413.7,950.5,404.9"/>
	<polygon fill="#FFFFFF" points="1015.6,456.7 970.1,456.7 970.1,385.2 1015.6,385.2 1015.6,392.3 977.1,392.3 977.1,415.9 
		1010.7,415.9 1010.7,422.8 977.1,422.8 977.1,449.7 1015.6,449.7 	"/>
	<path fill="#FFFFFF" d="M1079.3,421c0,13.4-1.6,22.4-4.7,26.9c-4,5.9-12.4,8.8-25.2,8.8H1028v-71.5h21.4c12.4,0,20.7,3,24.9,9
		C1077.6,399,1079.3,407.9,1079.3,421 M1071.9,421c0-11.1-1-18.2-2.9-21.5c-2.9-4.8-9.4-7.2-19.7-7.2H1035v57.4h14.3
		c7.2,0,12.5-1.1,15.9-3.2c3-1.9,4.9-5.1,5.8-9.6C1071.7,434,1071.9,428.7,1071.9,421"/>
	<path fill="#FFFFFF" d="M1143.2,426.8c0,20.6-8.6,30.8-25.8,30.8s-25.8-10.3-25.8-30.8v-41.6h7.1v41.6c0,7.6,1.2,13.2,3.5,16.8
		c2.9,4.7,8,7,15.3,7c7.2,0,12.3-2.3,15.3-7c2.3-3.7,3.5-9.3,3.5-16.8v-41.6h7.1V426.8z"/>
	<path fill="#FFFFFF" d="M1205.5,396.4l-5.4,4.5c-2.7-3.3-5.1-5.6-7.4-7c-2.7-1.7-6-2.6-9.7-2.6c-14.2,0-21.3,9.9-21.3,29.6
		c0,19.7,7.1,29.6,21.3,29.6c3.8,0,7-0.9,9.7-2.6c2.3-1.4,4.7-3.7,7.4-7l5.4,4.5c-3.3,4.1-6.6,7.1-9.7,8.9c-3.7,2.1-8,3.2-12.8,3.2
		c-9.9,0-17.3-3.8-22.2-11.5c-4.2-6.4-6.3-14.8-6.3-25.2c0-10.5,2.1-18.9,6.3-25.3c4.9-7.6,12.3-11.4,22.2-11.4
		c4.9,0,9.1,1.1,12.8,3.2C1198.8,389.3,1202.1,392.3,1205.5,396.4"/>
	<polygon fill="#FFFFFF" points="1263.4,392.2 1241.1,392.2 1241.1,456.7 1234,456.7 1234,392.2 1211.7,392.2 1211.7,385.2 
		1263.4,385.2 	"/>
	<rect x="1273.2" y="385.2" fill="#FFFFFF" width="7.3" height="71.5"/>
	<path fill="#FFFFFF" d="M1349.9,421c0,10.5-2.1,18.9-6.2,25.2c-4.9,7.7-12.4,11.5-22.3,11.5c-10,0-17.4-3.8-22.4-11.5
		c-4.1-6.4-6.1-14.8-6.1-25.2c0-10.4,2-18.9,6.1-25.2c4.9-7.7,12.4-11.5,22.4-11.5c10,0,17.4,3.8,22.3,11.5
		C1347.8,402.1,1349.9,410.5,1349.9,421 M1342.8,421c0-19.7-7.1-29.6-21.4-29.6c-14.2,0-21.3,9.9-21.3,29.6
		c0,19.8,7.1,29.6,21.3,29.6C1335.7,450.6,1342.8,440.7,1342.8,421"/>
	<polygon fill="#FFFFFF" points="1411,456.7 1403.9,456.7 1368.8,397.9 1368.8,456.7 1361.8,456.7 1361.8,385.2 1368.8,385.2 
		1403.9,444 1403.9,385.2 1411,385.2 	"/>
	<path fill="#FFFFFF" d="M1493.2,456.7h-47.7v-8.3c4.3-11,10.7-19.6,19.2-25.9c3.5-2.3,6.9-4.7,10.3-7c3.9-3.1,5.9-6.5,5.9-10.2
		c0-3.3-1.3-6.1-3.9-8.1c-2.4-1.8-5.3-2.8-8.8-2.8c-6.1,0-10.5,3.3-13.3,9.8l-9.2-4.2c4.5-10.4,12-15.7,22.6-15.7
		c6.5,0,11.9,1.9,16.3,5.5c4.6,3.9,6.9,9.1,6.9,15.5c0,4.6-1,8.4-3,11.5c-1.6,2.3-4.1,4.6-7.6,7c-3.2,2.2-6.4,4.4-9.6,6.7
		c-5.9,4.5-10.3,9.8-13.4,16.1h35.5V456.7z"/>
	<path fill="#FFFFFF" d="M1551.5,421c0,9.8-1.6,17.8-4.9,24.1c-4.3,8.3-11.1,12.4-20.3,12.4c-9.2,0-16-4.1-20.4-12.4
		c-3.3-6.3-4.9-14.3-4.9-24.1c0-9.8,1.6-17.8,4.9-24.1c4.4-8.1,11.2-12.2,20.4-12.2c9.2,0,16,4.1,20.3,12.2
		C1549.9,403.2,1551.5,411.2,1551.5,421 M1541.1,421c0-17.6-5-26.3-14.9-26.3c-9.9,0-14.9,8.8-14.9,26.3c0,17.7,4.9,26.5,14.9,26.5
		C1536.2,447.5,1541.1,438.7,1541.1,421"/>
	<polygon fill="#FFFFFF" points="1583.2,456.7 1572.4,456.7 1572.4,399.4 1562.4,406 1557.2,397.7 1576.8,385.2 1583.2,385.2 	"/>
	<path fill="#FFFFFF" d="M1646,432.1c0,7.5-2.2,13.6-6.7,18.1c-4.4,4.8-10.4,7.2-17.9,7.2c-11.6,0-19.2-5.5-22.8-16.6l9.7-3.7
		c2.2,6.8,6.6,10.3,13.1,10.3c4.5,0,8-1.4,10.4-4.2c2.4-2.8,3.6-6.5,3.6-11.1c0-4.6-1.2-8.3-3.5-11c-2.3-2.7-5.8-4-10.3-4
		c-4.3,0-8.3,1.7-11.9,5.1h-8.4v-37h40.2v10h-30.1V410c3.6-1.9,7-2.9,10.1-2.9c7.6,0,13.5,2.3,17.9,6.9
		C1643.8,418.6,1646,424.6,1646,432.1"/>
	<rect x="1654.3" y="424.5" fill="#FFFFFF" width="29.4" height="8.3"/>
	<path fill="#FFFFFF" d="M1736.6,456.7h-47.7v-8.3c4.3-11,10.7-19.6,19.2-25.9c3.5-2.3,6.9-4.7,10.3-7c3.9-3.1,5.9-6.5,5.9-10.2
		c0-3.3-1.3-6.1-3.9-8.1c-2.4-1.8-5.3-2.8-8.8-2.8c-6.1,0-10.5,3.3-13.3,9.8l-9.2-4.2c4.5-10.4,12-15.7,22.5-15.7
		c6.5,0,11.9,1.9,16.3,5.5c4.6,3.9,6.9,9.1,6.9,15.5c0,4.6-1,8.4-3,11.5c-1.6,2.3-4.1,4.6-7.6,7c-3.2,2.2-6.4,4.4-9.6,6.7
		c-5.9,4.5-10.3,9.8-13.4,16.1h35.5V456.7z"/>
	<path fill="#FFFFFF" d="M1794.9,421c0,9.8-1.6,17.8-4.9,24.1c-4.3,8.3-11.1,12.4-20.3,12.4c-9.2,0-16-4.1-20.4-12.4
		c-3.3-6.3-4.9-14.3-4.9-24.1c0-9.8,1.6-17.8,4.9-24.1c4.4-8.1,11.2-12.2,20.4-12.2c9.2,0,16,4.1,20.3,12.2
		C1793.3,403.2,1794.9,411.2,1794.9,421 M1784.5,421c0-17.6-5-26.3-14.9-26.3c-9.9,0-14.9,8.8-14.9,26.3c0,17.7,5,26.5,14.9,26.5
		C1779.6,447.5,1784.5,438.7,1784.5,421"/>
	<path fill="#FFFFFF" d="M1848.8,435.7c0,6.6-2.2,11.8-6.7,15.8c-4.5,4-10.1,6-16.9,6c-11.8,0-19.7-5.9-23.6-17.5l10.1-3.2
		c2.3,7,6.8,10.5,13.5,10.5c3.8,0,6.8-1.1,9.2-3.2c2.3-2.2,3.5-4.9,3.5-8.3c0-8.1-5.6-12.1-16.8-12v-8.4c10.2,0,15.3-3.5,15.3-10.5
		c0-2.8-1.2-5.2-3.5-7.2c-2.3-2-5.1-3-8.2-3c-5.8,0-9.9,3.2-12.2,9.7l-9.8-3.9c4.4-10.7,11.7-16,22-16c6.3,0,11.6,1.9,15.9,5.6
		c4.3,3.8,6.5,8.7,6.5,14.8c0,6.4-2.3,11.2-6.9,14.4C1846,422.7,1848.8,428.2,1848.8,435.7"/>
	<path fill="#FFFFFF" d="M1907.1,421c0,9.8-1.6,17.8-4.9,24.1c-4.3,8.3-11.1,12.4-20.3,12.4c-9.2,0-16-4.1-20.4-12.4
		c-3.3-6.3-4.9-14.3-4.9-24.1c0-9.8,1.6-17.8,4.9-24.1c4.4-8.1,11.2-12.2,20.4-12.2c9.2,0,16,4.1,20.3,12.2
		C1905.5,403.2,1907.1,411.2,1907.1,421 M1896.8,421c0-17.6-5-26.3-14.9-26.3c-9.9,0-14.9,8.8-14.9,26.3c0,17.7,5,26.5,14.9,26.5
		C1891.8,447.5,1896.8,438.7,1896.8,421"/>
	<rect x="6.7" y="6.7" fill="#BF2033" width="476.2" height="89.5"/>
	<rect x="482.6" y="6.7" fill="#A03F95" width="476.2" height="89.5"/>
	<rect x="959" y="6.7" fill="#F16F32" width="476.2" height="89.5"/>
	<rect x="1435.1" y="6.7" fill="#00B1AB" width="476.2" height="89.5"/>
</g>
</svg>
