<?xml version="1.0" encoding="utf-8"?>
<!-- Generator: Adobe Illustrator 24.3.0, SVG Export Plug-In . SVG Version: 6.00 Build 0)  -->
<svg version="1.1" id="Layer_1" xmlns="http://www.w3.org/2000/svg" xmlns:xlink="http://www.w3.org/1999/xlink" x="0px" y="0px"
	 viewBox="0 0 800 300" style="enable-background:new 0 0 800 300;" xml:space="preserve">
<style type="text/css">
	.st0{fill:#3C63B1;}
	.st1{fill:#FFFFFF;}
</style>
<rect class="st0" width="800" height="300"/>
<path class="st1" d="M404.9,102.2v18.6c0,6.3,1.2,8.6,6,8.6c4.7,0,5.9-2.3,5.9-8.7v-18.5h6.1v18.2c0,9.6-3.1,13.7-12.2,13.7
	c-9,0-11.8-3.7-11.8-13.3v-18.6H404.9z"/>
<path class="st1" d="M428.7,111.2h4.9l0.4,2.3c2.7-1.7,5-2.7,7.9-2.7c4.7,0,6.8,2.2,6.8,7.3v15.4h-6v-14.2c0-2.9-0.9-3.7-2.8-3.7
	c-1.5,0-3.1,0.7-5.2,2v15.9h-6V111.2z"/>
<path class="st1" d="M454.7,111.2h6v22.3h-6V111.2z M457.7,107.3c-2.7,0-3.4-0.7-3.4-3.2c0-2.6,0.8-3.2,3.4-3.2
	c2.7,0,3.4,0.7,3.4,3.2C461.1,106.5,460.4,107.3,457.7,107.3"/>
<path class="st1" d="M467.7,111.2v-6.3l6-0.8v7.1h4.9v4.5h-4.9v10.7c0,2.3,0.7,3.1,2.3,3.1c0.9,0,1.8-0.1,2.6-0.4l0.5,4.3
	c-1.4,0.4-3,0.7-4.9,0.7c-4.8,0-6.4-1.8-6.4-6.1v-12.2h-3.2v-4.5H467.7z"/>
<path class="st1" d="M495.7,120.3c0-4.2-1.1-5.2-3.7-5.2c-2.6,0-3.9,1.1-4,5.2H495.7z M500,133c-2.5,0.5-4.8,0.9-7.7,0.9
	c-6.6,0-10.3-1.9-10.3-11.5c0-9.2,4.1-11.9,10.2-11.9c6.2,0,8.9,2.1,8.9,10.1c0,1.1-0.1,2.3-0.1,3.4h-12.9c0.1,4.6,1.4,5.3,5.4,5.3
	c2.3,0,4-0.3,6.2-0.8L500,133z"/>
<path class="st1" d="M519,116.5c-1.3-0.7-2.3-1.1-3.6-1.1c-2.3,0-4.5,1.5-4.5,7.1c0,5.5,1.3,6.6,3.5,6.6c1.3,0,2.7-0.7,4.6-2V116.5z
	 M519.8,131.3c-2.3,1.5-4.4,2.6-7.1,2.6c-4.7,0-7.7-2.6-7.7-11.3c0-8.7,4.1-11.9,9.4-11.9c1.8,0,3.4,0.4,4.9,1.2l0.1-0.1
	c-0.2-1.6-0.3-3-0.3-4.6v-7h6v33.2h-4.9L519.8,131.3z"/>
<path class="st1" d="M543.9,102.2h7.7l8.6,16.5c1.4,2.8,2.5,5.3,3.8,8.4h0.1c-0.4-3.2-0.5-5.9-0.5-8.4v-16.5h5.3v31.3h-7.8
	l-8.5-16.5c-1.4-2.8-2.6-5.3-3.8-8.4h-0.1c0.3,3.1,0.5,5.9,0.5,8.4v16.5h-5.3V102.2z"/>
<path class="st1" d="M588.2,116.5c-1.3-0.7-2.3-1.1-3.6-1.1c-2.3,0-4.5,1.5-4.5,7.1c0,5.5,1.3,6.6,3.5,6.6c1.3,0,2.7-0.7,4.6-2
	V116.5z M588.9,131.3c-2.3,1.5-4.4,2.6-7.1,2.6c-4.7,0-7.7-2.6-7.7-11.3c0-8.7,4.1-11.9,9.4-11.9c2.2,0,3.7,0.5,5.5,1.5l0.2-1.1h4.9
	v22.3h-4.9L588.9,131.3z"/>
<path class="st1" d="M601.3,111.2v-6.3l6-0.8v7.1h4.9v4.5h-4.9v10.7c0,2.3,0.7,3.1,2.3,3.1c0.9,0,1.8-0.1,2.6-0.4l0.5,4.3
	c-1.4,0.4-3,0.7-4.9,0.7c-4.8,0-6.4-1.8-6.4-6.1v-12.2H598v-4.5H601.3z"/>
<path class="st1" d="M616.7,111.2h6v22.3h-6V111.2z M619.7,107.3c-2.7,0-3.4-0.7-3.4-3.2c0-2.6,0.8-3.2,3.4-3.2
	c2.7,0,3.4,0.7,3.4,3.2C623.1,106.5,622.4,107.3,619.7,107.3"/>
<path class="st1" d="M638.2,115.1c-3,0-4.3,1.3-4.3,7.2c0,6,1.3,7.3,4.3,7.3c3,0,4.3-1.3,4.3-7.2
	C642.5,116.4,641.2,115.1,638.2,115.1 M638.1,134.1c-6.6,0-10.2-2.4-10.2-11.7c0-9.2,3.9-11.9,10.4-11.9c6.6,0,10.3,2.3,10.3,11.7
	C648.5,131.3,644.6,134.1,638.1,134.1"/>
<path class="st1" d="M653.7,111.2h4.9l0.4,2.3c2.7-1.7,5-2.7,7.9-2.7c4.7,0,6.7,2.2,6.7,7.3v15.4h-6v-14.2c0-2.9-0.9-3.7-2.8-3.7
	c-1.5,0-3.1,0.7-5.2,2v15.9h-6V111.2z"/>
<path class="st1" d="M679,128.7c2.2,0.5,4.2,0.9,5.9,0.9c2.7,0,4-0.8,4-2.2c0-1.4-0.9-1.8-4.7-3.3c-4.1-1.7-5.8-3-5.8-6.5
	c0-4.6,3.1-6.8,9.4-6.8c1.9,0,3.9,0.3,5.4,0.7l-0.6,4.3c-1.6-0.4-3.3-0.7-5-0.7c-2.3,0-3.6,0.6-3.6,2c0,1.1,0.9,1.6,4.4,3
	c4.4,1.8,6.1,3,6.1,6.9c0,4.5-2.8,7-9.8,7c-2.3,0-4.1-0.3-6.2-0.9L679,128.7z"/>
<path class="st1" d="M417.9,190.5c-2,0.5-4.4,1-6.8,1c-7.9,0-11.7-2.6-11.7-16c0-13.3,4.3-16.2,12-16.2c2.4,0,4.8,0.4,6.6,0.9
	l-0.4,2.1c-1.8-0.5-4-0.9-6.2-0.9c-6,0-9.4,2.1-9.4,13.9c0,11.9,3.1,14,9.4,14c2,0,4.3-0.4,6.2-0.9L417.9,190.5z"/>
<rect x="423.9" y="157.8" class="st1" width="2.7" height="33.2"/>
<path class="st1" d="M435.1,169h2.7v22h-2.7V169z M436.4,163.5c-1.5,0-1.9-0.4-1.9-1.9c0-1.4,0.4-1.8,1.9-1.8c1.5,0,1.9,0.4,1.9,1.8
	C438.3,163,437.9,163.5,436.4,163.5"/>
<path class="st1" d="M445.5,169h2.2l0.2,2.4c2.8-1.7,5.6-2.9,8.2-2.9c3.2,0,4.7,1.4,5.5,3.1c3.3-2,6-3.1,8.7-3.1
	c4.2,0,6.2,2.1,6.2,7.2V191h-2.6v-14.8c0-4-1.4-5.4-4.2-5.4c-2.1,0-4.4,1-7.6,3c0.1,0.7,0.2,1.2,0.2,2.3V191h-2.7v-14.8
	c0-4-1.4-5.4-4.2-5.4c-2.1,0-4.4,1-7.4,2.8V191h-2.7V169z"/>
<path class="st1" d="M498.3,172.5c-2-1.1-3.6-1.8-5.6-1.8c-3.4,0-6.8,1.9-6.8,9.4s2.1,9.1,5.7,9.1c1.9,0,4-1,6.8-2.7V172.5z
	 M498.6,188.7c-2.5,1.6-4.9,2.8-7.5,2.8c-4.9,0-7.8-2.4-7.8-11.2c0-8.8,4.5-11.7,9.3-11.7c2.3,0,4.1,0.7,6.1,1.8l0.1-1.3h2.2v22
	h-2.2L498.6,188.7z"/>
<path class="st1" d="M509.9,169v-6.7l2.6-0.4v7.1h5.2v2.1h-5.2v15c0,2.3,0.8,3.1,2.5,3.1c1,0,1.8-0.1,2.7-0.4l0.3,2
	c-1,0.3-2.2,0.6-3.5,0.6c-3.4,0-4.6-1.4-4.6-4.6v-15.7h-3.4V169H509.9z"/>
<path class="st1" d="M536.5,178.4c-0.1-6.5-1.8-7.9-5.5-7.9c-3.7,0-5.9,1.5-6.2,7.9H536.5z M537.9,190.5c-2.2,0.5-4.4,0.9-6.7,0.9
	c-5.5,0-9.1-1.7-9.1-11.3c0-9.3,3.6-11.7,9.1-11.7s7.8,2.1,7.8,10.3c0,0.5,0,0.9-0.1,1.6h-14.2c0.1,7.9,2.4,9,6.9,9
	c2.2,0,3.9-0.3,5.9-0.8L537.9,190.5z"/>
<path class="st1" d="M572.8,190.5c-2,0.5-4.4,1-6.8,1c-7.9,0-11.7-2.6-11.7-16c0-13.3,4.3-16.2,12-16.2c2.4,0,4.8,0.4,6.6,0.9
	l-0.4,2.1c-1.8-0.5-4.1-0.9-6.2-0.9c-6,0-9.4,2.1-9.4,13.9c0,11.9,3.1,14,9.4,14c2,0,4.3-0.4,6.2-0.9L572.8,190.5z"/>
<path class="st1" d="M578.8,157.8h2.7v7.9c0,1.7-0.1,3.6-0.2,5.7l0.1,0.1c2.7-1.6,5.6-2.8,8.5-2.8c4.5,0,6.7,2.1,6.7,7.3V191h-2.7
	v-14.8c0-4-1.4-5.4-4.6-5.4c-2.3,0-4.8,1-7.8,2.8V191h-2.7V157.8z"/>
<path class="st1" d="M618.2,172.5c-2-1.1-3.6-1.8-5.6-1.8c-3.4,0-6.8,1.9-6.8,9.4s2.1,9.1,5.7,9.1c1.9,0,4-1,6.8-2.7V172.5z
	 M618.4,188.7c-2.5,1.6-4.9,2.8-7.5,2.8c-4.9,0-7.8-2.4-7.8-11.2c0-8.8,4.5-11.7,9.3-11.7c2.2,0,4.1,0.7,6.1,1.8l0.1-1.3h2.2v22
	h-2.2L618.4,188.7z"/>
<path class="st1" d="M628.6,169h2.2l0.2,2.4c2.8-1.7,5.8-2.9,8.6-2.9c4.5,0,6.7,2.1,6.7,7.2V191h-2.7v-14.8c0-4-1.4-5.4-4.6-5.4
	c-2.3,0-4.8,1-7.8,2.8V191h-2.7V169z"/>
<path class="st1" d="M668,172.5c-2-1.1-3.6-1.8-5.6-1.8c-3.4,0-6.8,1.9-6.8,9.4c0,7.5,2.1,9.1,5.7,9.1c1.9,0,4-1,6.7-2.7V172.5z
	 M670.6,192.2c0,6.3-3.1,8.9-9.6,8.9c-2.6,0-4.5-0.3-6.6-0.8l0.3-2.1c2.1,0.4,4,0.7,6.3,0.7c4.9,0,6.9-1.8,6.9-6.6v-3.5l-0.1,0
	c-2.4,1.5-4.7,2.6-7.2,2.6c-4.9,0-7.8-2.4-7.8-11.2c0-8.8,4.5-11.7,9.3-11.7c2.2,0,4.1,0.7,6.1,1.8l0.1-1.3h2.2V192.2z"/>
<path class="st1" d="M692.2,178.4c-0.1-6.5-1.8-7.9-5.5-7.9c-3.7,0-5.9,1.5-6.2,7.9H692.2z M693.6,190.5c-2.2,0.5-4.4,0.9-6.7,0.9
	c-5.5,0-9-1.7-9-11.3c0-9.3,3.6-11.7,9-11.7c5.5,0,7.8,2.1,7.8,10.3c0,0.5,0,0.9,0,1.6h-14.2c0.1,7.9,2.4,9,6.9,9
	c2.2,0,3.9-0.3,5.9-0.8L693.6,190.5z"/>
<path class="st1" d="M251.9,221.4c-11.3-4.9-22.9-11.1-36.5-8.1c-1.4,0-2.7,0.9-4.1,0.9c-1.4-0.1-2.7-0.9-4.1-0.9
	c-13.6-3-25.2,3.2-36.5,8.1c-8.4,3.3-19.4,2.8-26.7-2.3c3.6,4.6,8.5,7.4,13.6,9.3c9.4,3.7,20.5,1.2,28.3-4.2
	c6.7-3.8,12.4-11.1,21.1-8.3c-8.9,4.1-17.1,10-24.4,17.4l4.6,3.8c5.4-7.2,12.5-13.1,19.8-17.7c1.6-0.8,2.8-1.8,4.5-2
	c1.7,0.2,2.9,1.2,4.5,2c7.2,4.6,14.4,10.5,19.8,17.7l4.6-3.8c-7.4-7.5-15.5-13.3-24.4-17.4c8.8-2.8,14.5,4.6,21.1,8.3
	c7.8,5.4,18.9,8,28.3,4.2c5-1.9,9.9-4.7,13.6-9.3C271.3,224.2,260.3,224.7,251.9,221.4"/>
<path class="st1" d="M126.8,109.1c1.7-3.9,3-8,3.5-12.2c-0.7,1.8-1.9,3.3-3.2,4.8c-6.3,5.8-13.6,11.7-14.9,20.1
	c-0.2,1.2-0.3,2.4-0.7,3.6c-0.3,0.1-0.3-0.2-0.4-0.3l0.8-10.4c0.3-10.1-4.6-21.3,1.3-30.2c-0.2,0-0.3,0.1-0.5,0.2
	c-5.3,6.8-9.1,14.2-8.8,23.3c-0.7,11.2,6.5,19.1,7.3,29.7C112.8,126.6,121.9,118.7,126.8,109.1"/>
<path class="st1" d="M133.1,190.7c-1.1-2.7-2.7-5.3-3.5-8.1c-3.1-13.1-1.4-28.1-7-40.1c1,6.9-1.7,12.9-2.3,19.4
	c-0.5,5.4,0.3,10.6,2.5,15.1c0.5,1.4,1.7,2.5,2,3.9c-2-1.8-3.3-4.2-4.8-6.4c-6.3-10.5-20-17.3-20.9-30c-0.5,5.7-0.2,11.8,1.9,16.7
	C106.1,175.4,121.7,182.9,133.1,190.7"/>
<path class="st1" d="M114.3,111.1c1.8-3.8,5.1-7.2,8.5-10.2c8.2-5.8,16.8-13.9,16.9-24.2c-2.6,7.4-10.6,10.5-16.1,15.5
	c-2.8,2.7-5,5.9-6.3,9.2l-0.2-0.1c0.6-3,2-5.6,2.8-8.5c2.4-7.8,1.9-17.2,9.5-22.5c-3.9,1-7.4,3.4-10.2,6.8
	c-6.3,6.7-5.7,16.9-4.8,25.9C114.7,105.9,114.1,108.5,114.3,111.1"/>
<path class="st1" d="M116.4,165.1l0.6,0.5c-0.6-4.2-0.9-8.8,0.3-12.8c1.8-6.4,3.9-12.7,5.3-19.3c0.7-5.2,2-11,1.4-16
	c-0.7,2.7-1.5,5.3-2.9,7.7c-5.7,8.7-11.4,19-7.5,30c-0.1,0.1-0.2,0.3-0.4,0.2c-1.6-3.6-1.8-7.8-3-11.7c-2.6-10.4-10.7-19.1-8.4-31.1
	c-1.2,2.6-1.7,5.5-2.4,8.4c-1.4,7.3,0,15.2,2,21.9C103.9,151.3,112.2,157.3,116.4,165.1"/>
<path class="st1" d="M123.6,88.8c4.3-4,9.1-7.1,12.8-11.8c4.2-5.9,8.1-12.1,13.8-17.1c-7.7,3-16.3,5.9-20.9,14
	C126,78.3,125.9,84,123.6,88.8"/>
<path class="st1" d="M310.6,114.7l0.8,10.4c-0.1,0.1-0.1,0.4-0.4,0.3c-0.3-1.2-0.4-2.4-0.6-3.6c-1.4-8.4-8.6-14.3-15-20.1
	c-1.3-1.5-2.5-3-3.2-4.8c0.5,4.2,1.8,8.4,3.5,12.2c4.9,9.6,14,17.5,15.7,28.5c0.8-10.6,8-18.4,7.3-29.7c0.2-9.1-3.5-16.5-8.8-23.3
	c-0.2-0.1-0.3-0.2-0.5-0.2C315.1,93.3,310.3,104.6,310.6,114.7"/>
<path class="st1" d="M312.3,143.6c-1.1,3.9-1.4,8.1-3,11.7c-0.1,0.1-0.3-0.1-0.4-0.2c4-11.1-1.7-21.4-7.5-30c-1.4-2.3-2.2-5-2.9-7.7
	c-0.6,5,0.7,10.8,1.4,16c1.4,6.6,3.5,12.9,5.3,19.3c1.2,4,0.9,8.6,0.3,12.8l0.6-0.5c4.2-7.7,12.5-13.8,14.9-22.3
	c2-6.7,3.4-14.6,2-21.9c-0.7-2.9-1.2-5.8-2.4-8.4C323,124.5,314.9,133.2,312.3,143.6"/>
<path class="st1" d="M302.6,92.9c0.8,2.9,2.1,5.6,2.8,8.5l-0.2,0.1c-1.3-3.3-3.5-6.5-6.3-9.2c-5.4-5-13.4-8.1-16.1-15.5
	c0.1,10.3,8.7,18.4,16.9,24.2c3.4,3,6.7,6.3,8.5,10.2c0.2-2.6-0.4-5.2-0.2-8c0.9-9,1.5-19.2-4.8-25.9c-2.7-3.4-6.2-5.8-10.1-6.8
	C300.6,75.7,300.2,85.1,302.6,92.9"/>
<path class="st1" d="M286.1,77c3.8,4.7,8.6,7.7,12.8,11.8c-2.3-4.8-2.4-10.5-5.7-14.9c-4.6-8.1-13.3-11-20.9-14
	C277.9,64.9,281.9,71.2,286.1,77"/>
<path class="st1" d="M283.5,198.2c-1.6,1.5-3.4,2.7-5.2,3.7v0c-0.4,0.2-0.7,0.4-1.1,0.6l-0.1-0.1c0.2-0.2,0.3-0.3,0.5-0.4v0
	c2.3-2.1,4.9-4.5,6.5-7.2c6.3-8.7,4.1-21,8.8-30.4c-4.3,5.1-8.1,10.4-10.7,16.3c-2.9,7.1-4.4,14.9-8.7,21.3v0
	c-1.5,2.2-3.2,4.2-5.5,6c8.2-2.7,17.6-2.4,25.5-6c1.3-0.6,2.6-1.3,3.9-2.2c9.3-5.7,17.5-15.4,19.3-26
	C310.2,188.1,294.2,189.3,283.5,198.2"/>
<path class="st1" d="M323.4,144.4c-0.9,12.8-14.6,19.5-21,30c-1.5,2.2-2.8,4.6-4.8,6.4c0.3-1.4,1.6-2.5,2-3.9
	c2.2-4.4,3-9.7,2.5-15.1c-0.6-6.5-3.3-12.6-2.3-19.4c-5.6,12.1-3.9,27.1-7,40.1c-0.8,2.8-2.4,5.4-3.5,8.1
	c11.4-7.8,27.1-15.2,32.1-29.6C323.6,156.2,323.9,150,323.4,144.4"/>
<path class="st1" d="M259.6,211.5c-1.9,0.3-3.7,1-5.7,0.7c1.6-1,3.9-0.9,5.7-1.8c4.7-1.7,7.6-4.8,9.9-8.5v0c3-4.7,4.9-10.3,8.1-14.7
	c-6.1,4.1-11.4,9.3-17,14.7v0c-1.2,1.1-2.3,2.2-3.5,3.3c-4.9,4.3-10.8,6.3-17.1,7.6c1.5,0.5,3.5,0.4,5.1,0.8
	c11.2,2.8,23.6,7.3,35.5,3.2c7.3-2.3,14.9-7.9,18.9-15c0.2-0.4,0.4-0.8,0.6-1.2c-0.4,0.4-0.7,0.8-1.1,1.2
	C288.7,212,272.7,208.6,259.6,211.5"/>
<path class="st1" d="M177.4,213.6c1.6-0.4,3.6-0.3,5.1-0.8c-6.2-1.3-12.1-3.3-17.1-7.6c-1.2-1.1-2.4-2.2-3.5-3.3v0
	c-5.5-5.3-10.9-10.6-17-14.7c3.3,4.4,5.2,10,8.1,14.7v0c2.3,3.7,5.2,6.8,9.9,8.5c1.8,0.9,4,0.8,5.7,1.8c-2,0.3-3.8-0.5-5.7-0.7
	c-13.2-2.9-29.2,0.6-39.5-9.6c-0.4-0.4-0.7-0.8-1.1-1.2c0.2,0.4,0.4,0.8,0.7,1.2c4.1,7.1,11.6,12.7,18.9,15
	C153.8,220.9,166.2,216.4,177.4,213.6"/>
<path class="st1" d="M129,201.9c7.8,3.6,17.2,3.3,25.4,6c-2.2-1.8-4-3.8-5.5-6v0c-4.3-6.5-5.8-14.2-8.7-21.3
	c-2.6-5.8-6.5-11.1-10.7-16.3c4.7,9.4,2.5,21.6,8.8,30.4c1.6,2.7,4.2,5.1,6.5,7.2v0c0.2,0.1,0.3,0.3,0.5,0.4l-0.1,0.1
	c-0.4-0.2-0.7-0.4-1.1-0.6l0.1,0.1c-1.8-1-3.6-2.3-5.2-3.8c-10.7-8.8-26.7-10-33.1-24.5c1.7,10.6,10,20.3,19.3,26
	C126.4,200.5,127.7,201.2,129,201.9"/>
<path class="st1" d="M211.2,196.9c26.9,0,50-15.8,60.7-38.6l-15.2-7.1c-8,17.1-25.4,29-45.5,29c-27.7,0-50.2-22.5-50.2-50.2
	c0-27.7,22.5-50.2,50.2-50.2c20.1,0,37.5,11.9,45.5,29l15.2-7.1c-10.7-22.8-33.8-38.7-60.7-38.7c-36.9,0-66.9,30-66.9,66.9
	C144.3,167,174.3,196.9,211.2,196.9"/>
<path class="st1" d="M211.2,108.3c7.4,0,13.9,3.7,17.8,9.3l12.3-8.6c-6.7-9.5-17.7-15.7-30.1-15.7c-20.3,0-36.8,16.5-36.8,36.8
	s16.5,36.8,36.8,36.8c12.5,0,23.5-6.2,30.1-15.7l-12.3-8.6c-3.9,5.6-10.4,9.3-17.8,9.3c-12,0-21.7-9.7-21.7-21.8
	C189.5,118,199.2,108.3,211.2,108.3"/>
</svg>
